{
 "cells": [
  {
   "cell_type": "code",
   "execution_count": 1,
   "metadata": {},
   "outputs": [],
   "source": [
    "import subprocess\n",
    "import re\n",
    "\n",
    "def get_video_duration(youtube_url):\n",
    "    \"\"\"Get the duration of the video in seconds using yt-dlp.\"\"\"\n",
    "    command = ['yt-dlp', '--get-duration', youtube_url]\n",
    "    result = subprocess.run(command, capture_output=True, text=True, check=True)\n",
    "    duration_str = result.stdout.strip()\n",
    "    \n",
    "    h, m, s = 0, 0, 0\n",
    "    if len(duration_str.split(':')) == 3:\n",
    "        h, m, s = map(int, duration_str.split(':'))\n",
    "    elif len(duration_str.split(':')) == 2:\n",
    "        m, s = map(int, duration_str.split(':'))\n",
    "    else:\n",
    "        s = int(duration_str)\n",
    "    \n",
    "    return h * 3600 + m * 60 + s\n",
    "\n",
    "def download_clips(youtube_url, player, start_time=\"00:00:00\", duration=5, num_clips=5):\n",
    "    \"\"\"Downloads specified number of clips from a YouTube video.\"\"\"\n",
    "    output_dir = '/Users/treyshanks/data_science/Court_Vision/data/inputs'\n",
    "\n",
    "    def time_to_seconds(time_str):\n",
    "        h, m, s = map(int, time_str.split(':'))\n",
    "        return h * 3600 + m * 60 + s\n",
    "\n",
    "    def seconds_to_time(seconds):\n",
    "        h = seconds // 3600\n",
    "        m = (seconds % 3600) // 60\n",
    "        s = seconds % 60\n",
    "        return f\"{h:02}:{m:02}:{s:02}\"\n",
    "\n",
    "    start_seconds = time_to_seconds(start_time)\n",
    "    total_duration = get_video_duration(youtube_url)\n",
    "    \n",
    "    interval = (total_duration - start_seconds) // num_clips\n",
    "    \n",
    "    for i in range(num_clips):\n",
    "        clip_start = start_seconds + i * interval\n",
    "        clip_end = clip_start + duration\n",
    "        clip_start_str = seconds_to_time(clip_start)\n",
    "        clip_end_str = seconds_to_time(clip_end)\n",
    "        \n",
    "        output_file = f\"{output_dir}/{player}_{i+1}.mp4\"\n",
    "        \n",
    "        command = [\n",
    "            'yt-dlp',\n",
    "            '--download-sections', f\"*{clip_start_str}-{clip_end_str}\",\n",
    "            '--merge-output-format', 'mp4',\n",
    "            youtube_url,\n",
    "            '-o', output_file\n",
    "        ]\n",
    "        \n",
    "        print(f\"Running command: {' '.join(command)}\")\n",
    "        subprocess.run(command, check=True)"
   ]
  },
  {
   "cell_type": "code",
   "execution_count": 2,
   "metadata": {},
   "outputs": [
    {
     "name": "stdout",
     "output_type": "stream",
     "text": [
      "Running command: yt-dlp --download-sections *00:01:00-00:01:05 --merge-output-format mp4 https://www.youtube.com/watch?v=4xpY92W60Gw -o /Users/treyshanks/data_science/Court_Vision/data/inputs/lebron_1.mp4\n",
      "[youtube] Extracting URL: https://www.youtube.com/watch?v=4xpY92W60Gw\n",
      "[youtube] 4xpY92W60Gw: Downloading webpage\n",
      "[youtube] 4xpY92W60Gw: Downloading ios player API JSON\n",
      "[youtube] 4xpY92W60Gw: Downloading m3u8 information\n",
      "[info] 4xpY92W60Gw: Downloading 1 format(s): 616+251\n",
      "[info] 4xpY92W60Gw: Downloading 1 time ranges: 60.0-65.0\n",
      "[download] Destination: /Users/treyshanks/data_science/Court_Vision/data/inputs/lebron_1.mp4\n"
     ]
    },
    {
     "name": "stderr",
     "output_type": "stream",
     "text": [
      "[hls @ 0x14f62d920] Skip ('#EXT-X-VERSION:6')\n",
      "[hls @ 0x14f62d920] Opening 'https://rr3---sn-5uaeznlz.googlevideo.com/videoplayback/id/e31a58f765bad06c/itag/616/source/youtube/expire/1717311447/ei/d8NbZumxNqiz0_wP28Wk-A0/ip/2601:483:4b7e:d050:c4d2:ae6b:72af:bbf3/requiressl/yes/ratebypass/yes/pfa/1/wft/1/sgovp/clen%3D63643123%3Bdur%3D97.131%3Bgir%3Dyes%3Bitag%3D356%3Blmt%3D1702073830196013/rqh/1/hls_chunk_host/rr3---sn-5uaeznlz.googlevideo.com/xpc/EgVo2aDSNQ%3D%3D/mh/M4/mm/31,29/mn/sn-5uaeznlz,sn-5ualdns7/ms/au,rdu/mv/m/mvi/3/pl/40/gcr/us/initcwndbps/1166250/vprv/1/playlist_type/DVR/txp/5532434/mt/1717289563/fvip/2/keepalive/yes/sparams/expire,ei,ip,id,itag,source,requiressl,ratebypass,pfa,wft,sgovp,rqh,xpc,gcr,vprv,playlist_type/sig/AJfQdSswRQIgKqTnBEOOBAjaaSRkyt9kNQGXDyI7qTR4YK_HW8rZGvMCIQCqhlMfrw0L7mlzSvQATYn0kffTGgl3xZ56AgkAZFwJ6Q%3D%3D/lsparams/hls_chunk_host,mh,mm,mn,ms,mv,mvi,pl,initcwndbps/lsig/AHlkHjAwRAIgJsHmS44SHyPT_TTkOEAGh9I_RAFCtPfFsrwzuWzzqIMCIDgpFjEDHW5l_9zNYLBeqhbZ886ahxsqicpAN-njK6Dk/playlist/index.m3u8/govp/slices%3D0-4487612/gosq/0?is=1&file=seg.ts' for reading\n",
      "[hls @ 0x14f62d920] Opening 'https://rr3---sn-5uaeznlz.googlevideo.com/videoplayback/id/e31a58f765bad06c/itag/616/source/youtube/expire/1717311447/ei/d8NbZumxNqiz0_wP28Wk-A0/ip/2601:483:4b7e:d050:c4d2:ae6b:72af:bbf3/requiressl/yes/ratebypass/yes/pfa/1/wft/1/sgovp/clen%3D63643123%3Bdur%3D97.131%3Bgir%3Dyes%3Bitag%3D356%3Blmt%3D1702073830196013/rqh/1/hls_chunk_host/rr3---sn-5uaeznlz.googlevideo.com/xpc/EgVo2aDSNQ%3D%3D/mh/M4/mm/31,29/mn/sn-5uaeznlz,sn-5ualdns7/ms/au,rdu/mv/m/mvi/3/pl/40/gcr/us/initcwndbps/1166250/vprv/1/playlist_type/DVR/txp/5532434/mt/1717289563/fvip/2/keepalive/yes/sparams/expire,ei,ip,id,itag,source,requiressl,ratebypass,pfa,wft,sgovp,rqh,xpc,gcr,vprv,playlist_type/sig/AJfQdSswRQIgKqTnBEOOBAjaaSRkyt9kNQGXDyI7qTR4YK_HW8rZGvMCIQCqhlMfrw0L7mlzSvQATYn0kffTGgl3xZ56AgkAZFwJ6Q%3D%3D/lsparams/hls_chunk_host,mh,mm,mn,ms,mv,mvi,pl,initcwndbps/lsig/AHlkHjAwRAIgJsHmS44SHyPT_TTkOEAGh9I_RAFCtPfFsrwzuWzzqIMCIDgpFjEDHW5l_9zNYLBeqhbZ886ahxsqicpAN-njK6Dk/playlist/index.m3u8/govp/slices%3D0-4487612/gosq/0/file/seg.ts' for reading\n",
      "[hls @ 0x14f62d920] Opening 'https://rr3---sn-5uaeznlz.googlevideo.com/videoplayback/id/e31a58f765bad06c/itag/616/source/youtube/expire/1717311447/ei/d8NbZumxNqiz0_wP28Wk-A0/ip/2601:483:4b7e:d050:c4d2:ae6b:72af:bbf3/requiressl/yes/ratebypass/yes/pfa/1/wft/1/sgovp/clen%3D63643123%3Bdur%3D97.131%3Bgir%3Dyes%3Bitag%3D356%3Blmt%3D1702073830196013/rqh/1/hls_chunk_host/rr3---sn-5uaeznlz.googlevideo.com/xpc/EgVo2aDSNQ%3D%3D/mh/M4/mm/31,29/mn/sn-5uaeznlz,sn-5ualdns7/ms/au,rdu/mv/m/mvi/3/pl/40/gcr/us/initcwndbps/1166250/vprv/1/playlist_type/DVR/txp/5532434/mt/1717289563/fvip/2/keepalive/yes/sparams/expire,ei,ip,id,itag,source,requiressl,ratebypass,pfa,wft,sgovp,rqh,xpc,gcr,vprv,playlist_type/sig/AJfQdSswRQIgKqTnBEOOBAjaaSRkyt9kNQGXDyI7qTR4YK_HW8rZGvMCIQCqhlMfrw0L7mlzSvQATYn0kffTGgl3xZ56AgkAZFwJ6Q%3D%3D/lsparams/hls_chunk_host,mh,mm,mn,ms,mv,mvi,pl,initcwndbps/lsig/AHlkHjAwRAIgJsHmS44SHyPT_TTkOEAGh9I_RAFCtPfFsrwzuWzzqIMCIDgpFjEDHW5l_9zNYLBeqhbZ886ahxsqicpAN-njK6Dk/playlist/index.m3u8/govp/slices%3D0-219,4487613-7706573/gosq/1/file/seg.ts' for reading\n",
      "Input #0, hls, from 'https://manifest.googlevideo.com/api/manifest/hls_playlist/expire/1717311447/ei/d8NbZumxNqiz0_wP28Wk-A0/ip/2601:483:4b7e:d050:c4d2:ae6b:72af:bbf3/id/e31a58f765bad06c/itag/616/source/youtube/requiressl/yes/ratebypass/yes/pfa/1/wft/1/sgovp/clen%3D63643123%3Bdur%3D97.131%3Bgir%3Dyes%3Bitag%3D356%3Blmt%3D1702073830196013/rqh/1/hls_chunk_host/rr3---sn-5uaeznlz.googlevideo.com/xpc/EgVo2aDSNQ%3D%3D/mh/M4/mm/31,29/mn/sn-5uaeznlz,sn-5ualdns7/ms/au,rdu/mv/m/mvi/3/pl/40/gcr/us/initcwndbps/1166250/vprv/1/playlist_type/DVR/dover/13/txp/5532434/mt/1717289563/fvip/2/short_key/1/keepalive/yes/sparams/expire,ei,ip,id,itag,source,requiressl,ratebypass,pfa,wft,sgovp,rqh,xpc,gcr,vprv,playlist_type/sig/AJfQdSswRQIgKqTnBEOOBAjaaSRkyt9kNQGXDyI7qTR4YK_HW8rZGvMCIQCqhlMfrw0L7mlzSvQATYn0kffTGgl3xZ56AgkAZFwJ6Q%3D%3D/lsparams/hls_chunk_host,mh,mm,mn,ms,mv,mvi,pl,initcwndbps/lsig/AHlkHjAwRAIgJsHmS44SHyPT_TTkOEAGh9I_RAFCtPfFsrwzuWzzqIMCIDgpFjEDHW5l_9zNYLBeqhbZ886ahxsqicpAN-njK6Dk/playlist/index.m3u8':\n",
      "  Duration: 00:01:37.13, start: 0.000000, bitrate: 1 kb/s\n",
      "  Program 0 \n",
      "    Metadata:\n",
      "      variant_bitrate : 0\n",
      "  Stream #0:0(und): Video: vp9 (Profile 0) (vp09 / 0x39307076), yuv420p(tv, bt709), 1920x1080, 5324 kb/s, 29.97 fps, 29.97 tbr, 1k tbn (default)\n",
      "      Metadata:\n",
      "        variant_bitrate : 0\n",
      "        compatible_brands: iso6mp41\n",
      "        handler_name    : ISO Media file produced by Google Inc. Created on: 06/01/2024.\n",
      "        vendor_id       : [0][0][0][0]\n",
      "        major_brand     : dash\n",
      "        minor_version   : 0\n",
      "        creation_time   : 2024-06-02T00:57:29.000000Z\n",
      "Input #1, matroska,webm, from 'https://rr3---sn-5uaeznlz.googlevideo.com/videoplayback?expire=1717311447&ei=d8NbZsq7EvXg0_wPjJGP-A8&ip=2601%3A483%3A4b7e%3Ad050%3Ac4d2%3Aae6b%3A72af%3Abbf3&id=o-AHone0jip2BhzZ6nSey-fKuPSzkXlumVd1ufmqMugDtn&itag=251&source=youtube&requiressl=yes&xpc=EgVo2aDSNQ%3D%3D&mh=M4&mm=31%2C26&mn=sn-5uaeznlz%2Csn-p5qs7n6d&ms=au%2Conr&mv=m&mvi=3&pl=40&gcr=us&initcwndbps=1166250&bui=AbKP-1MeIpSs3g5UFSHqOgHc18IUL5I_j0YhUn7gvl2pFUM40fhLnV0Js41lT_-1Xhdrvvhi7RgE1akx&spc=UWF9fzLp51OHPH5cmJ9Nr5LfmTB0KOsJD3ddX4_Nfa3z-y-FIJgQREx5bD2A&vprv=1&svpuc=1&mime=audio%2Fwebm&ns=rS1RcV_xE9ppyaE6wss0jw8Q&rqh=1&gir=yes&clen=1476513&dur=97.181&lmt=1702072496113337&mt=1717289563&fvip=2&keepalive=yes&c=WEB&sefc=1&txp=5532434&n=32KPPQnGBA5O6w&sparams=expire%2Cei%2Cip%2Cid%2Citag%2Csource%2Crequiressl%2Cxpc%2Cgcr%2Cbui%2Cspc%2Cvprv%2Csvpuc%2Cmime%2Cns%2Crqh%2Cgir%2Cclen%2Cdur%2Clmt&sig=AJfQdSswRQIhANVPMtw_sK2UZeGGHotP6UYbupGs3c7ubm1B94dHFm7OAiBkI6ofwMGtWQzntSHbwGqXBg_C6fXv2BVfOfaWnfRk1A%3D%3D&lsparams=mh%2Cmm%2Cmn%2Cms%2Cmv%2Cmvi%2Cpl%2Cinitcwndbps&lsig=AHlkHjAwRgIhAKcyU56_AeeePPRUppNQPrDpzxlJ9tZxWxThVnjArjW9AiEAxKUAMJdAucewCFmbRDuJBzE5c4dbiQmXHNY-pP3kXmw%3D':\n",
      "  Metadata:\n",
      "    encoder         : google/video-file\n",
      "  Duration: 00:01:37.18, start: -0.007000, bitrate: 121 kb/s\n",
      "  Stream #1:0(eng): Audio: opus, 48000 Hz, stereo, fltp (default)\n",
      "Stream mapping:\n",
      "  Stream #0:0 -> #0:0 (copy)\n",
      "  Stream #1:0 -> #0:1 (copy)\n",
      "[mp4 @ 0x12f833150] track 1: codec frame size is not set\n",
      "Output #0, mp4, to 'file:/Users/treyshanks/data_science/Court_Vision/data/inputs/lebron_1.mp4.part':\n",
      "  Metadata:\n",
      "    encoder         : Lavf61.1.100\n",
      "  Stream #0:0(und): Video: vp9 (Profile 0) (vp09 / 0x39307076), yuv420p(tv, bt709), 1920x1080, q=2-31, 5324 kb/s, 29.97 fps, 29.97 tbr, 16k tbn (default)\n",
      "      Metadata:\n",
      "        variant_bitrate : 0\n",
      "        compatible_brands: iso6mp41\n",
      "        handler_name    : ISO Media file produced by Google Inc. Created on: 06/01/2024.\n",
      "        vendor_id       : [0][0][0][0]\n",
      "        major_brand     : dash\n",
      "        minor_version   : 0\n",
      "        creation_time   : 2024-06-02T00:57:29.000000Z\n",
      "  Stream #0:1(eng): Audio: opus (Opus / 0x7375704F), 48000 Hz, stereo, fltp (default)\n",
      "Press [q] to stop, [?] for help\n",
      "[hls @ 0x14f62d920] Opening 'https://rr3---sn-5uaeznlz.googlevideo.com/videoplayback/id/e31a58f765bad06c/itag/616/source/youtube/expire/1717311447/ei/d8NbZumxNqiz0_wP28Wk-A0/ip/2601:483:4b7e:d050:c4d2:ae6b:72af:bbf3/requiressl/yes/ratebypass/yes/pfa/1/wft/1/sgovp/clen%3D63643123%3Bdur%3D97.131%3Bgir%3Dyes%3Bitag%3D356%3Blmt%3D1702073830196013/rqh/1/hls_chunk_host/rr3---sn-5uaeznlz.googlevideo.com/xpc/EgVo2aDSNQ%3D%3D/mh/M4/mm/31,29/mn/sn-5uaeznlz,sn-5ualdns7/ms/au,rdu/mv/m/mvi/3/pl/40/gcr/us/initcwndbps/1166250/vprv/1/playlist_type/DVR/txp/5532434/mt/1717289563/fvip/2/keepalive/yes/sparams/expire,ei,ip,id,itag,source,requiressl,ratebypass,pfa,wft,sgovp,rqh,xpc,gcr,vprv,playlist_type/sig/AJfQdSswRQIgKqTnBEOOBAjaaSRkyt9kNQGXDyI7qTR4YK_HW8rZGvMCIQCqhlMfrw0L7mlzSvQATYn0kffTGgl3xZ56AgkAZFwJ6Q%3D%3D/lsparams/hls_chunk_host,mh,mm,mn,ms,mv,mvi,pl,initcwndbps/lsig/AHlkHjAwRAIgJsHmS44SHyPT_TTkOEAGh9I_RAFCtPfFsrwzuWzzqIMCIDgpFjEDHW5l_9zNYLBeqhbZ886ahxsqicpAN-njK6Dk/playlist/index.m3u8/govp/slices%3D0-4487612/gosq/0?is=1&file=seg.ts' for reading\n",
      "[hls @ 0x14f62d920] Opening 'https://rr3---sn-5uaeznlz.googlevideo.com/videoplayback/id/e31a58f765bad06c/itag/616/source/youtube/expire/1717311447/ei/d8NbZumxNqiz0_wP28Wk-A0/ip/2601:483:4b7e:d050:c4d2:ae6b:72af:bbf3/requiressl/yes/ratebypass/yes/pfa/1/wft/1/sgovp/clen%3D63643123%3Bdur%3D97.131%3Bgir%3Dyes%3Bitag%3D356%3Blmt%3D1702073830196013/rqh/1/hls_chunk_host/rr3---sn-5uaeznlz.googlevideo.com/xpc/EgVo2aDSNQ%3D%3D/mh/M4/mm/31,29/mn/sn-5uaeznlz,sn-5ualdns7/ms/au,rdu/mv/m/mvi/3/pl/40/gcr/us/initcwndbps/1166250/vprv/1/playlist_type/DVR/txp/5532434/mt/1717289563/fvip/2/keepalive/yes/sparams/expire,ei,ip,id,itag,source,requiressl,ratebypass,pfa,wft,sgovp,rqh,xpc,gcr,vprv,playlist_type/sig/AJfQdSswRQIgKqTnBEOOBAjaaSRkyt9kNQGXDyI7qTR4YK_HW8rZGvMCIQCqhlMfrw0L7mlzSvQATYn0kffTGgl3xZ56AgkAZFwJ6Q%3D%3D/lsparams/hls_chunk_host,mh,mm,mn,ms,mv,mvi,pl,initcwndbps/lsig/AHlkHjAwRAIgJsHmS44SHyPT_TTkOEAGh9I_RAFCtPfFsrwzuWzzqIMCIDgpFjEDHW5l_9zNYLBeqhbZ886ahxsqicpAN-njK6Dk/playlist/index.m3u8/govp/slices%3D0-219,37805321-42375470/gosq/10/file/seg.ts' for reading\n",
      "[hls @ 0x14f62d920] Opening 'https://rr3---sn-5uaeznlz.googlevideo.com/videoplayback/id/e31a58f765bad06c/itag/616/source/youtube/expire/1717311447/ei/d8NbZumxNqiz0_wP28Wk-A0/ip/2601:483:4b7e:d050:c4d2:ae6b:72af:bbf3/requiressl/yes/ratebypass/yes/pfa/1/wft/1/sgovp/clen%3D63643123%3Bdur%3D97.131%3Bgir%3Dyes%3Bitag%3D356%3Blmt%3D1702073830196013/rqh/1/hls_chunk_host/rr3---sn-5uaeznlz.googlevideo.com/xpc/EgVo2aDSNQ%3D%3D/mh/M4/mm/31,29/mn/sn-5uaeznlz,sn-5ualdns7/ms/au,rdu/mv/m/mvi/3/pl/40/gcr/us/initcwndbps/1166250/vprv/1/playlist_type/DVR/txp/5532434/mt/1717289563/fvip/2/keepalive/yes/sparams/expire,ei,ip,id,itag,source,requiressl,ratebypass,pfa,wft,sgovp,rqh,xpc,gcr,vprv,playlist_type/sig/AJfQdSswRQIgKqTnBEOOBAjaaSRkyt9kNQGXDyI7qTR4YK_HW8rZGvMCIQCqhlMfrw0L7mlzSvQATYn0kffTGgl3xZ56AgkAZFwJ6Q%3D%3D/lsparams/hls_chunk_host,mh,mm,mn,ms,mv,mvi,pl,initcwndbps/lsig/AHlkHjAwRAIgJsHmS44SHyPT_TTkOEAGh9I_RAFCtPfFsrwzuWzzqIMCIDgpFjEDHW5l_9zNYLBeqhbZ886ahxsqicpAN-njK6Dk/playlist/index.m3u8/govp/slices%3D0-219,42375471-46778032/gosq/11/file/seg.ts' for reading\n",
      "[https @ 0x14f879c00] Opening 'https://rr3---sn-5uaeznlz.googlevideo.com/videoplayback/id/e31a58f765bad06c/itag/616/source/youtube/expire/1717311447/ei/d8NbZumxNqiz0_wP28Wk-A0/ip/2601:483:4b7e:d050:c4d2:ae6b:72af:bbf3/requiressl/yes/ratebypass/yes/pfa/1/wft/1/sgovp/clen%3D63643123%3Bdur%3D97.131%3Bgir%3Dyes%3Bitag%3D356%3Blmt%3D1702073830196013/rqh/1/hls_chunk_host/rr3---sn-5uaeznlz.googlevideo.com/xpc/EgVo2aDSNQ%3D%3D/mh/M4/mm/31,29/mn/sn-5uaeznlz,sn-5ualdns7/ms/au,rdu/mv/m/mvi/3/pl/40/gcr/us/initcwndbps/1166250/vprv/1/playlist_type/DVR/txp/5532434/mt/1717289563/fvip/2/keepalive/yes/sparams/expire,ei,ip,id,itag,source,requiressl,ratebypass,pfa,wft,sgovp,rqh,xpc,gcr,vprv,playlist_type/sig/AJfQdSswRQIgKqTnBEOOBAjaaSRkyt9kNQGXDyI7qTR4YK_HW8rZGvMCIQCqhlMfrw0L7mlzSvQATYn0kffTGgl3xZ56AgkAZFwJ6Q%3D%3D/lsparams/hls_chunk_host,mh,mm,mn,ms,mv,mvi,pl,initcwndbps/lsig/AHlkHjAwRAIgJsHmS44SHyPT_TTkOEAGh9I_RAFCtPfFsrwzuWzzqIMCIDgpFjEDHW5l_9zNYLBeqhbZ886ahxsqicpAN-njK6Dk/playlist/index.m3u8/govp/slices%3D0-219,46778033-50590266/gosq/12/file/seg.ts' for reading\n",
      "[https @ 0x159809a00] Opening 'https://rr3---sn-5uaeznlz.googlevideo.com/videoplayback/id/e31a58f765bad06c/itag/616/source/youtube/expire/1717311447/ei/d8NbZumxNqiz0_wP28Wk-A0/ip/2601:483:4b7e:d050:c4d2:ae6b:72af:bbf3/requiressl/yes/ratebypass/yes/pfa/1/wft/1/sgovp/clen%3D63643123%3Bdur%3D97.131%3Bgir%3Dyes%3Bitag%3D356%3Blmt%3D1702073830196013/rqh/1/hls_chunk_host/rr3---sn-5uaeznlz.googlevideo.com/xpc/EgVo2aDSNQ%3D%3D/mh/M4/mm/31,29/mn/sn-5uaeznlz,sn-5ualdns7/ms/au,rdu/mv/m/mvi/3/pl/40/gcr/us/initcwndbps/1166250/vprv/1/playlist_type/DVR/txp/5532434/mt/1717289563/fvip/2/keepalive/yes/sparams/expire,ei,ip,id,itag,source,requiressl,ratebypass,pfa,wft,sgovp,rqh,xpc,gcr,vprv,playlist_type/sig/AJfQdSswRQIgKqTnBEOOBAjaaSRkyt9kNQGXDyI7qTR4YK_HW8rZGvMCIQCqhlMfrw0L7mlzSvQATYn0kffTGgl3xZ56AgkAZFwJ6Q%3D%3D/lsparams/hls_chunk_host,mh,mm,mn,ms,mv,mvi,pl,initcwndbps/lsig/AHlkHjAwRAIgJsHmS44SHyPT_TTkOEAGh9I_RAFCtPfFsrwzuWzzqIMCIDgpFjEDHW5l_9zNYLBeqhbZ886ahxsqicpAN-njK6Dk/playlist/index.m3u8/govp/slices%3D0-219,50590267-52884238/gosq/13/file/seg.ts' for reading\n",
      "[https @ 0x14f879c00] Opening 'https://rr3---sn-5uaeznlz.googlevideo.com/videoplayback/id/e31a58f765bad06c/itag/616/source/youtube/expire/1717311447/ei/d8NbZumxNqiz0_wP28Wk-A0/ip/2601:483:4b7e:d050:c4d2:ae6b:72af:bbf3/requiressl/yes/ratebypass/yes/pfa/1/wft/1/sgovp/clen%3D63643123%3Bdur%3D97.131%3Bgir%3Dyes%3Bitag%3D356%3Blmt%3D1702073830196013/rqh/1/hls_chunk_host/rr3---sn-5uaeznlz.googlevideo.com/xpc/EgVo2aDSNQ%3D%3D/mh/M4/mm/31,29/mn/sn-5uaeznlz,sn-5ualdns7/ms/au,rdu/mv/m/mvi/3/pl/40/gcr/us/initcwndbps/1166250/vprv/1/playlist_type/DVR/txp/5532434/mt/1717289563/fvip/2/keepalive/yes/sparams/expire,ei,ip,id,itag,source,requiressl,ratebypass,pfa,wft,sgovp,rqh,xpc,gcr,vprv,playlist_type/sig/AJfQdSswRQIgKqTnBEOOBAjaaSRkyt9kNQGXDyI7qTR4YK_HW8rZGvMCIQCqhlMfrw0L7mlzSvQATYn0kffTGgl3xZ56AgkAZFwJ6Q%3D%3D/lsparams/hls_chunk_host,mh,mm,mn,ms,mv,mvi,pl,initcwndbps/lsig/AHlkHjAwRAIgJsHmS44SHyPT_TTkOEAGh9I_RAFCtPfFsrwzuWzzqIMCIDgpFjEDHW5l_9zNYLBeqhbZ886ahxsqicpAN-njK6Dk/playlist/index.m3u8/govp/slices%3D0-219,52884239-55413432/gosq/14/file/seg.ts' for reading\n",
      "[https @ 0x159809a00] Opening 'https://rr3---sn-5uaeznlz.googlevideo.com/videoplayback/id/e31a58f765bad06c/itag/616/source/youtube/expire/1717311447/ei/d8NbZumxNqiz0_wP28Wk-A0/ip/2601:483:4b7e:d050:c4d2:ae6b:72af:bbf3/requiressl/yes/ratebypass/yes/pfa/1/wft/1/sgovp/clen%3D63643123%3Bdur%3D97.131%3Bgir%3Dyes%3Bitag%3D356%3Blmt%3D1702073830196013/rqh/1/hls_chunk_host/rr3---sn-5uaeznlz.googlevideo.com/xpc/EgVo2aDSNQ%3D%3D/mh/M4/mm/31,29/mn/sn-5uaeznlz,sn-5ualdns7/ms/au,rdu/mv/m/mvi/3/pl/40/gcr/us/initcwndbps/1166250/vprv/1/playlist_type/DVR/txp/5532434/mt/1717289563/fvip/2/keepalive/yes/sparams/expire,ei,ip,id,itag,source,requiressl,ratebypass,pfa,wft,sgovp,rqh,xpc,gcr,vprv,playlist_type/sig/AJfQdSswRQIgKqTnBEOOBAjaaSRkyt9kNQGXDyI7qTR4YK_HW8rZGvMCIQCqhlMfrw0L7mlzSvQATYn0kffTGgl3xZ56AgkAZFwJ6Q%3D%3D/lsparams/hls_chunk_host,mh,mm,mn,ms,mv,mvi,pl,initcwndbps/lsig/AHlkHjAwRAIgJsHmS44SHyPT_TTkOEAGh9I_RAFCtPfFsrwzuWzzqIMCIDgpFjEDHW5l_9zNYLBeqhbZ886ahxsqicpAN-njK6Dk/playlist/index.m3u8/govp/slices%3D0-219,55413433-60019359/gosq/15/file/seg.ts' for reading\n",
      "[https @ 0x14f879c00] Opening 'https://rr3---sn-5uaeznlz.googlevideo.com/videoplayback/id/e31a58f765bad06c/itag/616/source/youtube/expire/1717311447/ei/d8NbZumxNqiz0_wP28Wk-A0/ip/2601:483:4b7e:d050:c4d2:ae6b:72af:bbf3/requiressl/yes/ratebypass/yes/pfa/1/wft/1/sgovp/clen%3D63643123%3Bdur%3D97.131%3Bgir%3Dyes%3Bitag%3D356%3Blmt%3D1702073830196013/rqh/1/hls_chunk_host/rr3---sn-5uaeznlz.googlevideo.com/xpc/EgVo2aDSNQ%3D%3D/mh/M4/mm/31,29/mn/sn-5uaeznlz,sn-5ualdns7/ms/au,rdu/mv/m/mvi/3/pl/40/gcr/us/initcwndbps/1166250/vprv/1/playlist_type/DVR/txp/5532434/mt/1717289563/fvip/2/keepalive/yes/sparams/expire,ei,ip,id,itag,source,requiressl,ratebypass,pfa,wft,sgovp,rqh,xpc,gcr,vprv,playlist_type/sig/AJfQdSswRQIgKqTnBEOOBAjaaSRkyt9kNQGXDyI7qTR4YK_HW8rZGvMCIQCqhlMfrw0L7mlzSvQATYn0kffTGgl3xZ56AgkAZFwJ6Q%3D%3D/lsparams/hls_chunk_host,mh,mm,mn,ms,mv,mvi,pl,initcwndbps/lsig/AHlkHjAwRAIgJsHmS44SHyPT_TTkOEAGh9I_RAFCtPfFsrwzuWzzqIMCIDgpFjEDHW5l_9zNYLBeqhbZ886ahxsqicpAN-njK6Dk/playlist/index.m3u8/govp/slices%3D0-219,60019360-63643122/gosq/16/file/seg.ts' for reading\n",
      "[out#0/mp4 @ 0x12f8324b0] video:0KiB audio:212KiB subtitle:0KiB other streams:0KiB global headers:0KiB muxing overhead: 1.743924%\n",
      "size=     216KiB time=N/A bitrate=N/A speed=N/A    \n"
     ]
    },
    {
     "name": "stdout",
     "output_type": "stream",
     "text": [
      "[download] 100% of  215.76KiB in 00:00:04 at 47.73KiB/s\n",
      "Running command: yt-dlp --download-sections *00:01:07-00:01:12 --merge-output-format mp4 https://www.youtube.com/watch?v=4xpY92W60Gw -o /Users/treyshanks/data_science/Court_Vision/data/inputs/lebron_2.mp4\n",
      "[youtube] Extracting URL: https://www.youtube.com/watch?v=4xpY92W60Gw\n",
      "[youtube] 4xpY92W60Gw: Downloading webpage\n",
      "[youtube] 4xpY92W60Gw: Downloading ios player API JSON\n",
      "[youtube] 4xpY92W60Gw: Downloading m3u8 information\n",
      "[info] 4xpY92W60Gw: Downloading 1 format(s): 616+251\n",
      "[info] 4xpY92W60Gw: Downloading 1 time ranges: 67.0-72.0\n",
      "[download] Destination: /Users/treyshanks/data_science/Court_Vision/data/inputs/lebron_2.mp4\n"
     ]
    },
    {
     "name": "stderr",
     "output_type": "stream",
     "text": [
      "[hls @ 0x155706c80] Skip ('#EXT-X-VERSION:6')\n",
      "[hls @ 0x155706c80] Opening 'https://rr2---sn-5ualdns7.googlevideo.com/videoplayback/id/e31a58f765bad06c/itag/616/source/youtube/expire/1717311454/ei/fsNbZsrlGaW80_wPu_m6sAo/ip/2601:483:4b7e:d050:c4d2:ae6b:72af:bbf3/requiressl/yes/ratebypass/yes/pfa/1/wft/1/sgovp/clen%3D63643123%3Bdur%3D97.131%3Bgir%3Dyes%3Bitag%3D356%3Blmt%3D1702073830196013/rqh/1/hls_chunk_host/rr2---sn-5ualdns7.googlevideo.com/xpc/EgVo2aDSNQ%3D%3D/mh/M4/mm/31,29/mn/sn-5ualdns7,sn-5uaeznlz/ms/au,rdu/mv/m/mvi/2/pl/40/gcr/us/initcwndbps/1210000/vprv/1/playlist_type/DVR/txp/5532434/mt/1717289563/fvip/3/keepalive/yes/sparams/expire,ei,ip,id,itag,source,requiressl,ratebypass,pfa,wft,sgovp,rqh,xpc,gcr,vprv,playlist_type/sig/AJfQdSswRgIhAPoE5NQf7v2dZJBE_4vsnFM7PE8tSj7PwKnxA46Bgea-AiEAs-Morx8AHNeUl_oBGuroZH2fuX14vzxcMnxBcCL3LD8%3D/lsparams/hls_chunk_host,mh,mm,mn,ms,mv,mvi,pl,initcwndbps/lsig/AHlkHjAwRAIgGSw5d1BVB7C-MzP8Asd7SDWk0YSfVrEQ3-GY-JpWQuwCIBX2zUOMeUoAQ4h1xqhq0evgw6qlV78Dv0-4MiZ8LInh/playlist/index.m3u8/govp/slices%3D0-4487612/gosq/0?is=1&file=seg.ts' for reading\n",
      "[hls @ 0x155706c80] Opening 'https://rr2---sn-5ualdns7.googlevideo.com/videoplayback/id/e31a58f765bad06c/itag/616/source/youtube/expire/1717311454/ei/fsNbZsrlGaW80_wPu_m6sAo/ip/2601:483:4b7e:d050:c4d2:ae6b:72af:bbf3/requiressl/yes/ratebypass/yes/pfa/1/wft/1/sgovp/clen%3D63643123%3Bdur%3D97.131%3Bgir%3Dyes%3Bitag%3D356%3Blmt%3D1702073830196013/rqh/1/hls_chunk_host/rr2---sn-5ualdns7.googlevideo.com/xpc/EgVo2aDSNQ%3D%3D/mh/M4/mm/31,29/mn/sn-5ualdns7,sn-5uaeznlz/ms/au,rdu/mv/m/mvi/2/pl/40/gcr/us/initcwndbps/1210000/vprv/1/playlist_type/DVR/txp/5532434/mt/1717289563/fvip/3/keepalive/yes/sparams/expire,ei,ip,id,itag,source,requiressl,ratebypass,pfa,wft,sgovp,rqh,xpc,gcr,vprv,playlist_type/sig/AJfQdSswRgIhAPoE5NQf7v2dZJBE_4vsnFM7PE8tSj7PwKnxA46Bgea-AiEAs-Morx8AHNeUl_oBGuroZH2fuX14vzxcMnxBcCL3LD8%3D/lsparams/hls_chunk_host,mh,mm,mn,ms,mv,mvi,pl,initcwndbps/lsig/AHlkHjAwRAIgGSw5d1BVB7C-MzP8Asd7SDWk0YSfVrEQ3-GY-JpWQuwCIBX2zUOMeUoAQ4h1xqhq0evgw6qlV78Dv0-4MiZ8LInh/playlist/index.m3u8/govp/slices%3D0-4487612/gosq/0/file/seg.ts' for reading\n",
      "[hls @ 0x155706c80] Opening 'https://rr2---sn-5ualdns7.googlevideo.com/videoplayback/id/e31a58f765bad06c/itag/616/source/youtube/expire/1717311454/ei/fsNbZsrlGaW80_wPu_m6sAo/ip/2601:483:4b7e:d050:c4d2:ae6b:72af:bbf3/requiressl/yes/ratebypass/yes/pfa/1/wft/1/sgovp/clen%3D63643123%3Bdur%3D97.131%3Bgir%3Dyes%3Bitag%3D356%3Blmt%3D1702073830196013/rqh/1/hls_chunk_host/rr2---sn-5ualdns7.googlevideo.com/xpc/EgVo2aDSNQ%3D%3D/mh/M4/mm/31,29/mn/sn-5ualdns7,sn-5uaeznlz/ms/au,rdu/mv/m/mvi/2/pl/40/gcr/us/initcwndbps/1210000/vprv/1/playlist_type/DVR/txp/5532434/mt/1717289563/fvip/3/keepalive/yes/sparams/expire,ei,ip,id,itag,source,requiressl,ratebypass,pfa,wft,sgovp,rqh,xpc,gcr,vprv,playlist_type/sig/AJfQdSswRgIhAPoE5NQf7v2dZJBE_4vsnFM7PE8tSj7PwKnxA46Bgea-AiEAs-Morx8AHNeUl_oBGuroZH2fuX14vzxcMnxBcCL3LD8%3D/lsparams/hls_chunk_host,mh,mm,mn,ms,mv,mvi,pl,initcwndbps/lsig/AHlkHjAwRAIgGSw5d1BVB7C-MzP8Asd7SDWk0YSfVrEQ3-GY-JpWQuwCIBX2zUOMeUoAQ4h1xqhq0evgw6qlV78Dv0-4MiZ8LInh/playlist/index.m3u8/govp/slices%3D0-219,4487613-7706573/gosq/1/file/seg.ts' for reading\n",
      "Input #0, hls, from 'https://manifest.googlevideo.com/api/manifest/hls_playlist/expire/1717311454/ei/fsNbZsrlGaW80_wPu_m6sAo/ip/2601:483:4b7e:d050:c4d2:ae6b:72af:bbf3/id/e31a58f765bad06c/itag/616/source/youtube/requiressl/yes/ratebypass/yes/pfa/1/wft/1/sgovp/clen%3D63643123%3Bdur%3D97.131%3Bgir%3Dyes%3Bitag%3D356%3Blmt%3D1702073830196013/rqh/1/hls_chunk_host/rr2---sn-5ualdns7.googlevideo.com/xpc/EgVo2aDSNQ%3D%3D/mh/M4/mm/31,29/mn/sn-5ualdns7,sn-5uaeznlz/ms/au,rdu/mv/m/mvi/2/pl/40/gcr/us/initcwndbps/1210000/vprv/1/playlist_type/DVR/dover/13/txp/5532434/mt/1717289563/fvip/3/short_key/1/keepalive/yes/sparams/expire,ei,ip,id,itag,source,requiressl,ratebypass,pfa,wft,sgovp,rqh,xpc,gcr,vprv,playlist_type/sig/AJfQdSswRgIhAPoE5NQf7v2dZJBE_4vsnFM7PE8tSj7PwKnxA46Bgea-AiEAs-Morx8AHNeUl_oBGuroZH2fuX14vzxcMnxBcCL3LD8%3D/lsparams/hls_chunk_host,mh,mm,mn,ms,mv,mvi,pl,initcwndbps/lsig/AHlkHjAwRAIgGSw5d1BVB7C-MzP8Asd7SDWk0YSfVrEQ3-GY-JpWQuwCIBX2zUOMeUoAQ4h1xqhq0evgw6qlV78Dv0-4MiZ8LInh/playlist/index.m3u8':\n",
      "  Duration: 00:01:37.13, start: 0.000000, bitrate: 1 kb/s\n",
      "  Program 0 \n",
      "    Metadata:\n",
      "      variant_bitrate : 0\n",
      "  Stream #0:0(und): Video: vp9 (Profile 0) (vp09 / 0x39307076), yuv420p(tv, bt709), 1920x1080, 5324 kb/s, 29.97 fps, 29.97 tbr, 1k tbn (default)\n",
      "      Metadata:\n",
      "        variant_bitrate : 0\n",
      "        compatible_brands: iso6mp41\n",
      "        handler_name    : ISO Media file produced by Google Inc. Created on: 06/01/2024.\n",
      "        vendor_id       : [0][0][0][0]\n",
      "        major_brand     : dash\n",
      "        minor_version   : 0\n",
      "        creation_time   : 2024-06-02T00:57:35.000000Z\n",
      "Input #1, matroska,webm, from 'https://rr2---sn-5ualdns7.googlevideo.com/videoplayback?expire=1717311453&ei=fcNbZu-FK62ty_sPwo2O6AI&ip=2601%3A483%3A4b7e%3Ad050%3Ac4d2%3Aae6b%3A72af%3Abbf3&id=o-AKNj9HVU6Vv0R59g3knrYqwCoSWDODeYpl2NHhEVp9dF&itag=251&source=youtube&requiressl=yes&xpc=EgVo2aDSNQ%3D%3D&mh=M4&mm=31%2C26&mn=sn-5ualdns7%2Csn-p5qs7n6d&ms=au%2Conr&mv=m&mvi=2&pl=40&gcr=us&initcwndbps=1210000&bui=AbKP-1NDocvOXmDxgWlol1Lwz2szNT5QU2dsu4GxMGPOdHwwfF5B7BVcLRKolhFmGxFijzrOEzG5eYI9&spc=UWF9f89xYedX87uMmaUOnP2bssMuZBuUJYHfFfv9fBvWVo3Q0WT-WWS9QubV&vprv=1&svpuc=1&mime=audio%2Fwebm&ns=bz5Y8xOhtLNkA6K-TlE4fD4Q&rqh=1&gir=yes&clen=1476513&dur=97.181&lmt=1702072496113337&mt=1717289563&fvip=2&keepalive=yes&c=WEB&sefc=1&txp=5532434&n=q08547WT36OUMA&sparams=expire%2Cei%2Cip%2Cid%2Citag%2Csource%2Crequiressl%2Cxpc%2Cgcr%2Cbui%2Cspc%2Cvprv%2Csvpuc%2Cmime%2Cns%2Crqh%2Cgir%2Cclen%2Cdur%2Clmt&sig=AJfQdSswRQIgL_99I1V3llSwYe8PHwyg4-bL0omW2JQBwcW-IY5pwP8CIQDtLdCsc0j5DlenGzTivP8Z4hs8U_91ugHl75ki6xmwdg%3D%3D&lsparams=mh%2Cmm%2Cmn%2Cms%2Cmv%2Cmvi%2Cpl%2Cinitcwndbps&lsig=AHlkHjAwRQIgFKWxJx2fgEKbgGRcFVTdhsppLqupnRuPSE9NFm2VkV8CIQC0fkxQGHbSDg4ToQkh_akzF03e2iUYpAuz85nabSdIrg%3D%3D':\n",
      "  Metadata:\n",
      "    encoder         : google/video-file\n",
      "  Duration: 00:01:37.18, start: -0.007000, bitrate: 121 kb/s\n",
      "  Stream #1:0(eng): Audio: opus, 48000 Hz, stereo, fltp (default)\n",
      "Stream mapping:\n",
      "  Stream #0:0 -> #0:0 (copy)\n",
      "  Stream #1:0 -> #0:1 (copy)\n",
      "[mp4 @ 0x156559310] track 1: codec frame size is not set\n",
      "Output #0, mp4, to 'file:/Users/treyshanks/data_science/Court_Vision/data/inputs/lebron_2.mp4.part':\n",
      "  Metadata:\n",
      "    encoder         : Lavf61.1.100\n",
      "  Stream #0:0(und): Video: vp9 (Profile 0) (vp09 / 0x39307076), yuv420p(tv, bt709), 1920x1080, q=2-31, 5324 kb/s, 29.97 fps, 29.97 tbr, 16k tbn (default)\n",
      "      Metadata:\n",
      "        variant_bitrate : 0\n",
      "        compatible_brands: iso6mp41\n",
      "        handler_name    : ISO Media file produced by Google Inc. Created on: 06/01/2024.\n",
      "        vendor_id       : [0][0][0][0]\n",
      "        major_brand     : dash\n",
      "        minor_version   : 0\n",
      "        creation_time   : 2024-06-02T00:57:35.000000Z\n",
      "  Stream #0:1(eng): Audio: opus (Opus / 0x7375704F), 48000 Hz, stereo, fltp (default)\n",
      "Press [q] to stop, [?] for help\n",
      "[hls @ 0x155706c80] Opening 'https://rr2---sn-5ualdns7.googlevideo.com/videoplayback/id/e31a58f765bad06c/itag/616/source/youtube/expire/1717311454/ei/fsNbZsrlGaW80_wPu_m6sAo/ip/2601:483:4b7e:d050:c4d2:ae6b:72af:bbf3/requiressl/yes/ratebypass/yes/pfa/1/wft/1/sgovp/clen%3D63643123%3Bdur%3D97.131%3Bgir%3Dyes%3Bitag%3D356%3Blmt%3D1702073830196013/rqh/1/hls_chunk_host/rr2---sn-5ualdns7.googlevideo.com/xpc/EgVo2aDSNQ%3D%3D/mh/M4/mm/31,29/mn/sn-5ualdns7,sn-5uaeznlz/ms/au,rdu/mv/m/mvi/2/pl/40/gcr/us/initcwndbps/1210000/vprv/1/playlist_type/DVR/txp/5532434/mt/1717289563/fvip/3/keepalive/yes/sparams/expire,ei,ip,id,itag,source,requiressl,ratebypass,pfa,wft,sgovp,rqh,xpc,gcr,vprv,playlist_type/sig/AJfQdSswRgIhAPoE5NQf7v2dZJBE_4vsnFM7PE8tSj7PwKnxA46Bgea-AiEAs-Morx8AHNeUl_oBGuroZH2fuX14vzxcMnxBcCL3LD8%3D/lsparams/hls_chunk_host,mh,mm,mn,ms,mv,mvi,pl,initcwndbps/lsig/AHlkHjAwRAIgGSw5d1BVB7C-MzP8Asd7SDWk0YSfVrEQ3-GY-JpWQuwCIBX2zUOMeUoAQ4h1xqhq0evgw6qlV78Dv0-4MiZ8LInh/playlist/index.m3u8/govp/slices%3D0-4487612/gosq/0?is=1&file=seg.ts' for reading\n",
      "[hls @ 0x155706c80] Opening 'https://rr2---sn-5ualdns7.googlevideo.com/videoplayback/id/e31a58f765bad06c/itag/616/source/youtube/expire/1717311454/ei/fsNbZsrlGaW80_wPu_m6sAo/ip/2601:483:4b7e:d050:c4d2:ae6b:72af:bbf3/requiressl/yes/ratebypass/yes/pfa/1/wft/1/sgovp/clen%3D63643123%3Bdur%3D97.131%3Bgir%3Dyes%3Bitag%3D356%3Blmt%3D1702073830196013/rqh/1/hls_chunk_host/rr2---sn-5ualdns7.googlevideo.com/xpc/EgVo2aDSNQ%3D%3D/mh/M4/mm/31,29/mn/sn-5ualdns7,sn-5uaeznlz/ms/au,rdu/mv/m/mvi/2/pl/40/gcr/us/initcwndbps/1210000/vprv/1/playlist_type/DVR/txp/5532434/mt/1717289563/fvip/3/keepalive/yes/sparams/expire,ei,ip,id,itag,source,requiressl,ratebypass,pfa,wft,sgovp,rqh,xpc,gcr,vprv,playlist_type/sig/AJfQdSswRgIhAPoE5NQf7v2dZJBE_4vsnFM7PE8tSj7PwKnxA46Bgea-AiEAs-Morx8AHNeUl_oBGuroZH2fuX14vzxcMnxBcCL3LD8%3D/lsparams/hls_chunk_host,mh,mm,mn,ms,mv,mvi,pl,initcwndbps/lsig/AHlkHjAwRAIgGSw5d1BVB7C-MzP8Asd7SDWk0YSfVrEQ3-GY-JpWQuwCIBX2zUOMeUoAQ4h1xqhq0evgw6qlV78Dv0-4MiZ8LInh/playlist/index.m3u8/govp/slices%3D0-219,42375471-46778032/gosq/11/file/seg.ts' for reading\n",
      "[hls @ 0x155706c80] Opening 'https://rr2---sn-5ualdns7.googlevideo.com/videoplayback/id/e31a58f765bad06c/itag/616/source/youtube/expire/1717311454/ei/fsNbZsrlGaW80_wPu_m6sAo/ip/2601:483:4b7e:d050:c4d2:ae6b:72af:bbf3/requiressl/yes/ratebypass/yes/pfa/1/wft/1/sgovp/clen%3D63643123%3Bdur%3D97.131%3Bgir%3Dyes%3Bitag%3D356%3Blmt%3D1702073830196013/rqh/1/hls_chunk_host/rr2---sn-5ualdns7.googlevideo.com/xpc/EgVo2aDSNQ%3D%3D/mh/M4/mm/31,29/mn/sn-5ualdns7,sn-5uaeznlz/ms/au,rdu/mv/m/mvi/2/pl/40/gcr/us/initcwndbps/1210000/vprv/1/playlist_type/DVR/txp/5532434/mt/1717289563/fvip/3/keepalive/yes/sparams/expire,ei,ip,id,itag,source,requiressl,ratebypass,pfa,wft,sgovp,rqh,xpc,gcr,vprv,playlist_type/sig/AJfQdSswRgIhAPoE5NQf7v2dZJBE_4vsnFM7PE8tSj7PwKnxA46Bgea-AiEAs-Morx8AHNeUl_oBGuroZH2fuX14vzxcMnxBcCL3LD8%3D/lsparams/hls_chunk_host,mh,mm,mn,ms,mv,mvi,pl,initcwndbps/lsig/AHlkHjAwRAIgGSw5d1BVB7C-MzP8Asd7SDWk0YSfVrEQ3-GY-JpWQuwCIBX2zUOMeUoAQ4h1xqhq0evgw6qlV78Dv0-4MiZ8LInh/playlist/index.m3u8/govp/slices%3D0-219,46778033-50590266/gosq/12/file/seg.ts' for reading\n",
      "[https @ 0x15687dc00] Opening 'https://rr2---sn-5ualdns7.googlevideo.com/videoplayback/id/e31a58f765bad06c/itag/616/source/youtube/expire/1717311454/ei/fsNbZsrlGaW80_wPu_m6sAo/ip/2601:483:4b7e:d050:c4d2:ae6b:72af:bbf3/requiressl/yes/ratebypass/yes/pfa/1/wft/1/sgovp/clen%3D63643123%3Bdur%3D97.131%3Bgir%3Dyes%3Bitag%3D356%3Blmt%3D1702073830196013/rqh/1/hls_chunk_host/rr2---sn-5ualdns7.googlevideo.com/xpc/EgVo2aDSNQ%3D%3D/mh/M4/mm/31,29/mn/sn-5ualdns7,sn-5uaeznlz/ms/au,rdu/mv/m/mvi/2/pl/40/gcr/us/initcwndbps/1210000/vprv/1/playlist_type/DVR/txp/5532434/mt/1717289563/fvip/3/keepalive/yes/sparams/expire,ei,ip,id,itag,source,requiressl,ratebypass,pfa,wft,sgovp,rqh,xpc,gcr,vprv,playlist_type/sig/AJfQdSswRgIhAPoE5NQf7v2dZJBE_4vsnFM7PE8tSj7PwKnxA46Bgea-AiEAs-Morx8AHNeUl_oBGuroZH2fuX14vzxcMnxBcCL3LD8%3D/lsparams/hls_chunk_host,mh,mm,mn,ms,mv,mvi,pl,initcwndbps/lsig/AHlkHjAwRAIgGSw5d1BVB7C-MzP8Asd7SDWk0YSfVrEQ3-GY-JpWQuwCIBX2zUOMeUoAQ4h1xqhq0evgw6qlV78Dv0-4MiZ8LInh/playlist/index.m3u8/govp/slices%3D0-219,50590267-52884238/gosq/13/file/seg.ts' for reading\n",
      "[https @ 0x1568ab400] Opening 'https://rr2---sn-5ualdns7.googlevideo.com/videoplayback/id/e31a58f765bad06c/itag/616/source/youtube/expire/1717311454/ei/fsNbZsrlGaW80_wPu_m6sAo/ip/2601:483:4b7e:d050:c4d2:ae6b:72af:bbf3/requiressl/yes/ratebypass/yes/pfa/1/wft/1/sgovp/clen%3D63643123%3Bdur%3D97.131%3Bgir%3Dyes%3Bitag%3D356%3Blmt%3D1702073830196013/rqh/1/hls_chunk_host/rr2---sn-5ualdns7.googlevideo.com/xpc/EgVo2aDSNQ%3D%3D/mh/M4/mm/31,29/mn/sn-5ualdns7,sn-5uaeznlz/ms/au,rdu/mv/m/mvi/2/pl/40/gcr/us/initcwndbps/1210000/vprv/1/playlist_type/DVR/txp/5532434/mt/1717289563/fvip/3/keepalive/yes/sparams/expire,ei,ip,id,itag,source,requiressl,ratebypass,pfa,wft,sgovp,rqh,xpc,gcr,vprv,playlist_type/sig/AJfQdSswRgIhAPoE5NQf7v2dZJBE_4vsnFM7PE8tSj7PwKnxA46Bgea-AiEAs-Morx8AHNeUl_oBGuroZH2fuX14vzxcMnxBcCL3LD8%3D/lsparams/hls_chunk_host,mh,mm,mn,ms,mv,mvi,pl,initcwndbps/lsig/AHlkHjAwRAIgGSw5d1BVB7C-MzP8Asd7SDWk0YSfVrEQ3-GY-JpWQuwCIBX2zUOMeUoAQ4h1xqhq0evgw6qlV78Dv0-4MiZ8LInh/playlist/index.m3u8/govp/slices%3D0-219,52884239-55413432/gosq/14/file/seg.ts' for reading\n",
      "[https @ 0x15687dc00] Opening 'https://rr2---sn-5ualdns7.googlevideo.com/videoplayback/id/e31a58f765bad06c/itag/616/source/youtube/expire/1717311454/ei/fsNbZsrlGaW80_wPu_m6sAo/ip/2601:483:4b7e:d050:c4d2:ae6b:72af:bbf3/requiressl/yes/ratebypass/yes/pfa/1/wft/1/sgovp/clen%3D63643123%3Bdur%3D97.131%3Bgir%3Dyes%3Bitag%3D356%3Blmt%3D1702073830196013/rqh/1/hls_chunk_host/rr2---sn-5ualdns7.googlevideo.com/xpc/EgVo2aDSNQ%3D%3D/mh/M4/mm/31,29/mn/sn-5ualdns7,sn-5uaeznlz/ms/au,rdu/mv/m/mvi/2/pl/40/gcr/us/initcwndbps/1210000/vprv/1/playlist_type/DVR/txp/5532434/mt/1717289563/fvip/3/keepalive/yes/sparams/expire,ei,ip,id,itag,source,requiressl,ratebypass,pfa,wft,sgovp,rqh,xpc,gcr,vprv,playlist_type/sig/AJfQdSswRgIhAPoE5NQf7v2dZJBE_4vsnFM7PE8tSj7PwKnxA46Bgea-AiEAs-Morx8AHNeUl_oBGuroZH2fuX14vzxcMnxBcCL3LD8%3D/lsparams/hls_chunk_host,mh,mm,mn,ms,mv,mvi,pl,initcwndbps/lsig/AHlkHjAwRAIgGSw5d1BVB7C-MzP8Asd7SDWk0YSfVrEQ3-GY-JpWQuwCIBX2zUOMeUoAQ4h1xqhq0evgw6qlV78Dv0-4MiZ8LInh/playlist/index.m3u8/govp/slices%3D0-219,55413433-60019359/gosq/15/file/seg.ts' for reading\n",
      "[https @ 0x1568ab400] Opening 'https://rr2---sn-5ualdns7.googlevideo.com/videoplayback/id/e31a58f765bad06c/itag/616/source/youtube/expire/1717311454/ei/fsNbZsrlGaW80_wPu_m6sAo/ip/2601:483:4b7e:d050:c4d2:ae6b:72af:bbf3/requiressl/yes/ratebypass/yes/pfa/1/wft/1/sgovp/clen%3D63643123%3Bdur%3D97.131%3Bgir%3Dyes%3Bitag%3D356%3Blmt%3D1702073830196013/rqh/1/hls_chunk_host/rr2---sn-5ualdns7.googlevideo.com/xpc/EgVo2aDSNQ%3D%3D/mh/M4/mm/31,29/mn/sn-5ualdns7,sn-5uaeznlz/ms/au,rdu/mv/m/mvi/2/pl/40/gcr/us/initcwndbps/1210000/vprv/1/playlist_type/DVR/txp/5532434/mt/1717289563/fvip/3/keepalive/yes/sparams/expire,ei,ip,id,itag,source,requiressl,ratebypass,pfa,wft,sgovp,rqh,xpc,gcr,vprv,playlist_type/sig/AJfQdSswRgIhAPoE5NQf7v2dZJBE_4vsnFM7PE8tSj7PwKnxA46Bgea-AiEAs-Morx8AHNeUl_oBGuroZH2fuX14vzxcMnxBcCL3LD8%3D/lsparams/hls_chunk_host,mh,mm,mn,ms,mv,mvi,pl,initcwndbps/lsig/AHlkHjAwRAIgGSw5d1BVB7C-MzP8Asd7SDWk0YSfVrEQ3-GY-JpWQuwCIBX2zUOMeUoAQ4h1xqhq0evgw6qlV78Dv0-4MiZ8LInh/playlist/index.m3u8/govp/slices%3D0-219,60019360-63643122/gosq/16/file/seg.ts' for reading\n",
      "[out#0/mp4 @ 0x156509610] video:0KiB audio:171KiB subtitle:0KiB other streams:0KiB global headers:0KiB muxing overhead: 1.817715%\n",
      "size=     174KiB time=N/A bitrate=N/A speed=N/A    \n"
     ]
    },
    {
     "name": "stdout",
     "output_type": "stream",
     "text": [
      "[download] 100% of  174.33KiB in 00:00:03 at 50.74KiB/s\n",
      "Running command: yt-dlp --download-sections *00:01:14-00:01:19 --merge-output-format mp4 https://www.youtube.com/watch?v=4xpY92W60Gw -o /Users/treyshanks/data_science/Court_Vision/data/inputs/lebron_3.mp4\n",
      "[youtube] Extracting URL: https://www.youtube.com/watch?v=4xpY92W60Gw\n",
      "[youtube] 4xpY92W60Gw: Downloading webpage\n",
      "[youtube] 4xpY92W60Gw: Downloading ios player API JSON\n",
      "[youtube] 4xpY92W60Gw: Downloading m3u8 information\n",
      "[info] 4xpY92W60Gw: Downloading 1 format(s): 616+251\n",
      "[info] 4xpY92W60Gw: Downloading 1 time ranges: 74.0-79.0\n",
      "[download] Destination: /Users/treyshanks/data_science/Court_Vision/data/inputs/lebron_3.mp4\n"
     ]
    },
    {
     "name": "stderr",
     "output_type": "stream",
     "text": [
      "[hls @ 0x12de062a0] Skip ('#EXT-X-VERSION:6')\n",
      "[hls @ 0x12de062a0] Opening 'https://rr2---sn-5ualdns7.googlevideo.com/videoplayback/id/e31a58f765bad06c/itag/616/source/youtube/expire/1717311460/ei/g8NbZo3BPIrL0_wPg8GFuAE/ip/2601:483:4b7e:d050:c4d2:ae6b:72af:bbf3/requiressl/yes/ratebypass/yes/pfa/1/wft/1/sgovp/clen%3D63643123%3Bdur%3D97.131%3Bgir%3Dyes%3Bitag%3D356%3Blmt%3D1702073830196013/rqh/1/hls_chunk_host/rr2---sn-5ualdns7.googlevideo.com/xpc/EgVo2aDSNQ%3D%3D/mh/M4/mm/31,29/mn/sn-5ualdns7,sn-5uaeznlz/ms/au,rdu/mv/m/mvi/2/pl/40/gcr/us/initcwndbps/1166250/vprv/1/playlist_type/DVR/txp/5532434/mt/1717289563/fvip/3/keepalive/yes/sparams/expire,ei,ip,id,itag,source,requiressl,ratebypass,pfa,wft,sgovp,rqh,xpc,gcr,vprv,playlist_type/sig/AJfQdSswRgIhAMXGVyn-pJwCpnFNUXPyizM3VI7jNE9PeyO_WM_nPcffAiEA2TW5Ow08lpdh2jn3m1M5IfF3TNvFXIO7BEPrVRLAXJQ%3D/lsparams/hls_chunk_host,mh,mm,mn,ms,mv,mvi,pl,initcwndbps/lsig/AHlkHjAwRAIgevTnQhE-BZHERUE2VYP99K1jjwlgBZvsRsnh1UV0L8kCIDecwoXLARc0xLb6-xV-PVRk10imw2rTpu6Pt7_czZVN/playlist/index.m3u8/govp/slices%3D0-4487612/gosq/0?is=1&file=seg.ts' for reading\n",
      "[hls @ 0x12de062a0] Opening 'https://rr2---sn-5ualdns7.googlevideo.com/videoplayback/id/e31a58f765bad06c/itag/616/source/youtube/expire/1717311460/ei/g8NbZo3BPIrL0_wPg8GFuAE/ip/2601:483:4b7e:d050:c4d2:ae6b:72af:bbf3/requiressl/yes/ratebypass/yes/pfa/1/wft/1/sgovp/clen%3D63643123%3Bdur%3D97.131%3Bgir%3Dyes%3Bitag%3D356%3Blmt%3D1702073830196013/rqh/1/hls_chunk_host/rr2---sn-5ualdns7.googlevideo.com/xpc/EgVo2aDSNQ%3D%3D/mh/M4/mm/31,29/mn/sn-5ualdns7,sn-5uaeznlz/ms/au,rdu/mv/m/mvi/2/pl/40/gcr/us/initcwndbps/1166250/vprv/1/playlist_type/DVR/txp/5532434/mt/1717289563/fvip/3/keepalive/yes/sparams/expire,ei,ip,id,itag,source,requiressl,ratebypass,pfa,wft,sgovp,rqh,xpc,gcr,vprv,playlist_type/sig/AJfQdSswRgIhAMXGVyn-pJwCpnFNUXPyizM3VI7jNE9PeyO_WM_nPcffAiEA2TW5Ow08lpdh2jn3m1M5IfF3TNvFXIO7BEPrVRLAXJQ%3D/lsparams/hls_chunk_host,mh,mm,mn,ms,mv,mvi,pl,initcwndbps/lsig/AHlkHjAwRAIgevTnQhE-BZHERUE2VYP99K1jjwlgBZvsRsnh1UV0L8kCIDecwoXLARc0xLb6-xV-PVRk10imw2rTpu6Pt7_czZVN/playlist/index.m3u8/govp/slices%3D0-4487612/gosq/0/file/seg.ts' for reading\n",
      "[hls @ 0x12de062a0] Opening 'https://rr2---sn-5ualdns7.googlevideo.com/videoplayback/id/e31a58f765bad06c/itag/616/source/youtube/expire/1717311460/ei/g8NbZo3BPIrL0_wPg8GFuAE/ip/2601:483:4b7e:d050:c4d2:ae6b:72af:bbf3/requiressl/yes/ratebypass/yes/pfa/1/wft/1/sgovp/clen%3D63643123%3Bdur%3D97.131%3Bgir%3Dyes%3Bitag%3D356%3Blmt%3D1702073830196013/rqh/1/hls_chunk_host/rr2---sn-5ualdns7.googlevideo.com/xpc/EgVo2aDSNQ%3D%3D/mh/M4/mm/31,29/mn/sn-5ualdns7,sn-5uaeznlz/ms/au,rdu/mv/m/mvi/2/pl/40/gcr/us/initcwndbps/1166250/vprv/1/playlist_type/DVR/txp/5532434/mt/1717289563/fvip/3/keepalive/yes/sparams/expire,ei,ip,id,itag,source,requiressl,ratebypass,pfa,wft,sgovp,rqh,xpc,gcr,vprv,playlist_type/sig/AJfQdSswRgIhAMXGVyn-pJwCpnFNUXPyizM3VI7jNE9PeyO_WM_nPcffAiEA2TW5Ow08lpdh2jn3m1M5IfF3TNvFXIO7BEPrVRLAXJQ%3D/lsparams/hls_chunk_host,mh,mm,mn,ms,mv,mvi,pl,initcwndbps/lsig/AHlkHjAwRAIgevTnQhE-BZHERUE2VYP99K1jjwlgBZvsRsnh1UV0L8kCIDecwoXLARc0xLb6-xV-PVRk10imw2rTpu6Pt7_czZVN/playlist/index.m3u8/govp/slices%3D0-219,4487613-7706573/gosq/1/file/seg.ts' for reading\n",
      "Input #0, hls, from 'https://manifest.googlevideo.com/api/manifest/hls_playlist/expire/1717311460/ei/g8NbZo3BPIrL0_wPg8GFuAE/ip/2601:483:4b7e:d050:c4d2:ae6b:72af:bbf3/id/e31a58f765bad06c/itag/616/source/youtube/requiressl/yes/ratebypass/yes/pfa/1/wft/1/sgovp/clen%3D63643123%3Bdur%3D97.131%3Bgir%3Dyes%3Bitag%3D356%3Blmt%3D1702073830196013/rqh/1/hls_chunk_host/rr2---sn-5ualdns7.googlevideo.com/xpc/EgVo2aDSNQ%3D%3D/mh/M4/mm/31,29/mn/sn-5ualdns7,sn-5uaeznlz/ms/au,rdu/mv/m/mvi/2/pl/40/gcr/us/initcwndbps/1166250/vprv/1/playlist_type/DVR/dover/13/txp/5532434/mt/1717289563/fvip/3/short_key/1/keepalive/yes/sparams/expire,ei,ip,id,itag,source,requiressl,ratebypass,pfa,wft,sgovp,rqh,xpc,gcr,vprv,playlist_type/sig/AJfQdSswRgIhAMXGVyn-pJwCpnFNUXPyizM3VI7jNE9PeyO_WM_nPcffAiEA2TW5Ow08lpdh2jn3m1M5IfF3TNvFXIO7BEPrVRLAXJQ%3D/lsparams/hls_chunk_host,mh,mm,mn,ms,mv,mvi,pl,initcwndbps/lsig/AHlkHjAwRAIgevTnQhE-BZHERUE2VYP99K1jjwlgBZvsRsnh1UV0L8kCIDecwoXLARc0xLb6-xV-PVRk10imw2rTpu6Pt7_czZVN/playlist/index.m3u8':\n",
      "  Duration: 00:01:37.13, start: 0.000000, bitrate: 1 kb/s\n",
      "  Program 0 \n",
      "    Metadata:\n",
      "      variant_bitrate : 0\n",
      "  Stream #0:0(und): Video: vp9 (Profile 0) (vp09 / 0x39307076), yuv420p(tv, bt709), 1920x1080, 5324 kb/s, 29.97 fps, 29.97 tbr, 1k tbn (default)\n",
      "      Metadata:\n",
      "        variant_bitrate : 0\n",
      "        compatible_brands: iso6mp41\n",
      "        handler_name    : ISO Media file produced by Google Inc. Created on: 06/01/2024.\n",
      "        vendor_id       : [0][0][0][0]\n",
      "        major_brand     : dash\n",
      "        minor_version   : 0\n",
      "        creation_time   : 2024-06-02T00:57:41.000000Z\n",
      "Input #1, matroska,webm, from 'https://rr3---sn-5uaeznlz.googlevideo.com/videoplayback?expire=1717311459&ei=g8NbZo3NC_W5y_sP6uDQoQQ&ip=2601%3A483%3A4b7e%3Ad050%3Ac4d2%3Aae6b%3A72af%3Abbf3&id=o-AGEcf4Wm-rs3UoJLnbMvVGeO2_7hLeB_CmocCDSuiQ4y&itag=251&source=youtube&requiressl=yes&xpc=EgVo2aDSNQ%3D%3D&mh=M4&mm=31%2C26&mn=sn-5uaeznlz%2Csn-p5qlsn76&ms=au%2Conr&mv=m&mvi=3&pl=40&gcr=us&initcwndbps=1178750&bui=AbKP-1PI97hA6zGubvPQWkgg52cub2SAcDV7oiMj703LfzmkL89ssRwp3utzW6eL7Y2POQDepADr7qnJ&spc=UWF9f7uYi1mQ833x_J6bEjJAGo6lu2hlxX1kRHnYykg6cfOSidVbo47x5VoS&vprv=1&svpuc=1&mime=audio%2Fwebm&ns=_Zsi0p4VF5eGoeFA5HNw73QQ&rqh=1&gir=yes&clen=1476513&dur=97.181&lmt=1702072496113337&mt=1717289563&fvip=2&keepalive=yes&c=WEB&sefc=1&txp=5532434&n=dvg3VeJ0nixwag&sparams=expire%2Cei%2Cip%2Cid%2Citag%2Csource%2Crequiressl%2Cxpc%2Cgcr%2Cbui%2Cspc%2Cvprv%2Csvpuc%2Cmime%2Cns%2Crqh%2Cgir%2Cclen%2Cdur%2Clmt&sig=AJfQdSswRgIhAOTLwKfSwe128ff456oOljCvPMi5FcunMgNv43GoqI5tAiEA2mNwaAWpQsEbTic-j0zCJQCLxDMQLOToB8go-WajF-A%3D&lsparams=mh%2Cmm%2Cmn%2Cms%2Cmv%2Cmvi%2Cpl%2Cinitcwndbps&lsig=AHlkHjAwRAIgKXcVdH8tvQA-Hp9PPkmWPutX_9mQWxV1_j_NWN_FnE0CIEzyKVZA50EQTyiMVcmpEEGHkPuX09zVsPdzJU68_snl':\n",
      "  Metadata:\n",
      "    encoder         : google/video-file\n",
      "  Duration: 00:01:37.18, start: -0.007000, bitrate: 121 kb/s\n",
      "  Stream #1:0(eng): Audio: opus, 48000 Hz, stereo, fltp (default)\n",
      "Stream mapping:\n",
      "  Stream #0:0 -> #0:0 (copy)\n",
      "  Stream #1:0 -> #0:1 (copy)\n",
      "[mp4 @ 0x10f00b6b0] track 1: codec frame size is not set\n",
      "Output #0, mp4, to 'file:/Users/treyshanks/data_science/Court_Vision/data/inputs/lebron_3.mp4.part':\n",
      "  Metadata:\n",
      "    encoder         : Lavf61.1.100\n",
      "  Stream #0:0(und): Video: vp9 (Profile 0) (vp09 / 0x39307076), yuv420p(tv, bt709), 1920x1080, q=2-31, 5324 kb/s, 29.97 fps, 29.97 tbr, 16k tbn (default)\n",
      "      Metadata:\n",
      "        variant_bitrate : 0\n",
      "        compatible_brands: iso6mp41\n",
      "        handler_name    : ISO Media file produced by Google Inc. Created on: 06/01/2024.\n",
      "        vendor_id       : [0][0][0][0]\n",
      "        major_brand     : dash\n",
      "        minor_version   : 0\n",
      "        creation_time   : 2024-06-02T00:57:41.000000Z\n",
      "  Stream #0:1(eng): Audio: opus (Opus / 0x7375704F), 48000 Hz, stereo, fltp (default)\n",
      "Press [q] to stop, [?] for help\n",
      "[hls @ 0x12de062a0] Opening 'https://rr2---sn-5ualdns7.googlevideo.com/videoplayback/id/e31a58f765bad06c/itag/616/source/youtube/expire/1717311460/ei/g8NbZo3BPIrL0_wPg8GFuAE/ip/2601:483:4b7e:d050:c4d2:ae6b:72af:bbf3/requiressl/yes/ratebypass/yes/pfa/1/wft/1/sgovp/clen%3D63643123%3Bdur%3D97.131%3Bgir%3Dyes%3Bitag%3D356%3Blmt%3D1702073830196013/rqh/1/hls_chunk_host/rr2---sn-5ualdns7.googlevideo.com/xpc/EgVo2aDSNQ%3D%3D/mh/M4/mm/31,29/mn/sn-5ualdns7,sn-5uaeznlz/ms/au,rdu/mv/m/mvi/2/pl/40/gcr/us/initcwndbps/1166250/vprv/1/playlist_type/DVR/txp/5532434/mt/1717289563/fvip/3/keepalive/yes/sparams/expire,ei,ip,id,itag,source,requiressl,ratebypass,pfa,wft,sgovp,rqh,xpc,gcr,vprv,playlist_type/sig/AJfQdSswRgIhAMXGVyn-pJwCpnFNUXPyizM3VI7jNE9PeyO_WM_nPcffAiEA2TW5Ow08lpdh2jn3m1M5IfF3TNvFXIO7BEPrVRLAXJQ%3D/lsparams/hls_chunk_host,mh,mm,mn,ms,mv,mvi,pl,initcwndbps/lsig/AHlkHjAwRAIgevTnQhE-BZHERUE2VYP99K1jjwlgBZvsRsnh1UV0L8kCIDecwoXLARc0xLb6-xV-PVRk10imw2rTpu6Pt7_czZVN/playlist/index.m3u8/govp/slices%3D0-4487612/gosq/0?is=1&file=seg.ts' for reading\n",
      "[hls @ 0x12de062a0] Opening 'https://rr2---sn-5ualdns7.googlevideo.com/videoplayback/id/e31a58f765bad06c/itag/616/source/youtube/expire/1717311460/ei/g8NbZo3BPIrL0_wPg8GFuAE/ip/2601:483:4b7e:d050:c4d2:ae6b:72af:bbf3/requiressl/yes/ratebypass/yes/pfa/1/wft/1/sgovp/clen%3D63643123%3Bdur%3D97.131%3Bgir%3Dyes%3Bitag%3D356%3Blmt%3D1702073830196013/rqh/1/hls_chunk_host/rr2---sn-5ualdns7.googlevideo.com/xpc/EgVo2aDSNQ%3D%3D/mh/M4/mm/31,29/mn/sn-5ualdns7,sn-5uaeznlz/ms/au,rdu/mv/m/mvi/2/pl/40/gcr/us/initcwndbps/1166250/vprv/1/playlist_type/DVR/txp/5532434/mt/1717289563/fvip/3/keepalive/yes/sparams/expire,ei,ip,id,itag,source,requiressl,ratebypass,pfa,wft,sgovp,rqh,xpc,gcr,vprv,playlist_type/sig/AJfQdSswRgIhAMXGVyn-pJwCpnFNUXPyizM3VI7jNE9PeyO_WM_nPcffAiEA2TW5Ow08lpdh2jn3m1M5IfF3TNvFXIO7BEPrVRLAXJQ%3D/lsparams/hls_chunk_host,mh,mm,mn,ms,mv,mvi,pl,initcwndbps/lsig/AHlkHjAwRAIgevTnQhE-BZHERUE2VYP99K1jjwlgBZvsRsnh1UV0L8kCIDecwoXLARc0xLb6-xV-PVRk10imw2rTpu6Pt7_czZVN/playlist/index.m3u8/govp/slices%3D0-219,46778033-50590266/gosq/12/file/seg.ts' for reading\n",
      "[hls @ 0x12de062a0] Opening 'https://rr2---sn-5ualdns7.googlevideo.com/videoplayback/id/e31a58f765bad06c/itag/616/source/youtube/expire/1717311460/ei/g8NbZo3BPIrL0_wPg8GFuAE/ip/2601:483:4b7e:d050:c4d2:ae6b:72af:bbf3/requiressl/yes/ratebypass/yes/pfa/1/wft/1/sgovp/clen%3D63643123%3Bdur%3D97.131%3Bgir%3Dyes%3Bitag%3D356%3Blmt%3D1702073830196013/rqh/1/hls_chunk_host/rr2---sn-5ualdns7.googlevideo.com/xpc/EgVo2aDSNQ%3D%3D/mh/M4/mm/31,29/mn/sn-5ualdns7,sn-5uaeznlz/ms/au,rdu/mv/m/mvi/2/pl/40/gcr/us/initcwndbps/1166250/vprv/1/playlist_type/DVR/txp/5532434/mt/1717289563/fvip/3/keepalive/yes/sparams/expire,ei,ip,id,itag,source,requiressl,ratebypass,pfa,wft,sgovp,rqh,xpc,gcr,vprv,playlist_type/sig/AJfQdSswRgIhAMXGVyn-pJwCpnFNUXPyizM3VI7jNE9PeyO_WM_nPcffAiEA2TW5Ow08lpdh2jn3m1M5IfF3TNvFXIO7BEPrVRLAXJQ%3D/lsparams/hls_chunk_host,mh,mm,mn,ms,mv,mvi,pl,initcwndbps/lsig/AHlkHjAwRAIgevTnQhE-BZHERUE2VYP99K1jjwlgBZvsRsnh1UV0L8kCIDecwoXLARc0xLb6-xV-PVRk10imw2rTpu6Pt7_czZVN/playlist/index.m3u8/govp/slices%3D0-219,50590267-52884238/gosq/13/file/seg.ts' for reading\n",
      "[https @ 0x139017000] Opening 'https://rr2---sn-5ualdns7.googlevideo.com/videoplayback/id/e31a58f765bad06c/itag/616/source/youtube/expire/1717311460/ei/g8NbZo3BPIrL0_wPg8GFuAE/ip/2601:483:4b7e:d050:c4d2:ae6b:72af:bbf3/requiressl/yes/ratebypass/yes/pfa/1/wft/1/sgovp/clen%3D63643123%3Bdur%3D97.131%3Bgir%3Dyes%3Bitag%3D356%3Blmt%3D1702073830196013/rqh/1/hls_chunk_host/rr2---sn-5ualdns7.googlevideo.com/xpc/EgVo2aDSNQ%3D%3D/mh/M4/mm/31,29/mn/sn-5ualdns7,sn-5uaeznlz/ms/au,rdu/mv/m/mvi/2/pl/40/gcr/us/initcwndbps/1166250/vprv/1/playlist_type/DVR/txp/5532434/mt/1717289563/fvip/3/keepalive/yes/sparams/expire,ei,ip,id,itag,source,requiressl,ratebypass,pfa,wft,sgovp,rqh,xpc,gcr,vprv,playlist_type/sig/AJfQdSswRgIhAMXGVyn-pJwCpnFNUXPyizM3VI7jNE9PeyO_WM_nPcffAiEA2TW5Ow08lpdh2jn3m1M5IfF3TNvFXIO7BEPrVRLAXJQ%3D/lsparams/hls_chunk_host,mh,mm,mn,ms,mv,mvi,pl,initcwndbps/lsig/AHlkHjAwRAIgevTnQhE-BZHERUE2VYP99K1jjwlgBZvsRsnh1UV0L8kCIDecwoXLARc0xLb6-xV-PVRk10imw2rTpu6Pt7_czZVN/playlist/index.m3u8/govp/slices%3D0-219,52884239-55413432/gosq/14/file/seg.ts' for reading\n",
      "[https @ 0x13904d400] Opening 'https://rr2---sn-5ualdns7.googlevideo.com/videoplayback/id/e31a58f765bad06c/itag/616/source/youtube/expire/1717311460/ei/g8NbZo3BPIrL0_wPg8GFuAE/ip/2601:483:4b7e:d050:c4d2:ae6b:72af:bbf3/requiressl/yes/ratebypass/yes/pfa/1/wft/1/sgovp/clen%3D63643123%3Bdur%3D97.131%3Bgir%3Dyes%3Bitag%3D356%3Blmt%3D1702073830196013/rqh/1/hls_chunk_host/rr2---sn-5ualdns7.googlevideo.com/xpc/EgVo2aDSNQ%3D%3D/mh/M4/mm/31,29/mn/sn-5ualdns7,sn-5uaeznlz/ms/au,rdu/mv/m/mvi/2/pl/40/gcr/us/initcwndbps/1166250/vprv/1/playlist_type/DVR/txp/5532434/mt/1717289563/fvip/3/keepalive/yes/sparams/expire,ei,ip,id,itag,source,requiressl,ratebypass,pfa,wft,sgovp,rqh,xpc,gcr,vprv,playlist_type/sig/AJfQdSswRgIhAMXGVyn-pJwCpnFNUXPyizM3VI7jNE9PeyO_WM_nPcffAiEA2TW5Ow08lpdh2jn3m1M5IfF3TNvFXIO7BEPrVRLAXJQ%3D/lsparams/hls_chunk_host,mh,mm,mn,ms,mv,mvi,pl,initcwndbps/lsig/AHlkHjAwRAIgevTnQhE-BZHERUE2VYP99K1jjwlgBZvsRsnh1UV0L8kCIDecwoXLARc0xLb6-xV-PVRk10imw2rTpu6Pt7_czZVN/playlist/index.m3u8/govp/slices%3D0-219,55413433-60019359/gosq/15/file/seg.ts' for reading\n",
      "[https @ 0x139017000] Opening 'https://rr2---sn-5ualdns7.googlevideo.com/videoplayback/id/e31a58f765bad06c/itag/616/source/youtube/expire/1717311460/ei/g8NbZo3BPIrL0_wPg8GFuAE/ip/2601:483:4b7e:d050:c4d2:ae6b:72af:bbf3/requiressl/yes/ratebypass/yes/pfa/1/wft/1/sgovp/clen%3D63643123%3Bdur%3D97.131%3Bgir%3Dyes%3Bitag%3D356%3Blmt%3D1702073830196013/rqh/1/hls_chunk_host/rr2---sn-5ualdns7.googlevideo.com/xpc/EgVo2aDSNQ%3D%3D/mh/M4/mm/31,29/mn/sn-5ualdns7,sn-5uaeznlz/ms/au,rdu/mv/m/mvi/2/pl/40/gcr/us/initcwndbps/1166250/vprv/1/playlist_type/DVR/txp/5532434/mt/1717289563/fvip/3/keepalive/yes/sparams/expire,ei,ip,id,itag,source,requiressl,ratebypass,pfa,wft,sgovp,rqh,xpc,gcr,vprv,playlist_type/sig/AJfQdSswRgIhAMXGVyn-pJwCpnFNUXPyizM3VI7jNE9PeyO_WM_nPcffAiEA2TW5Ow08lpdh2jn3m1M5IfF3TNvFXIO7BEPrVRLAXJQ%3D/lsparams/hls_chunk_host,mh,mm,mn,ms,mv,mvi,pl,initcwndbps/lsig/AHlkHjAwRAIgevTnQhE-BZHERUE2VYP99K1jjwlgBZvsRsnh1UV0L8kCIDecwoXLARc0xLb6-xV-PVRk10imw2rTpu6Pt7_czZVN/playlist/index.m3u8/govp/slices%3D0-219,60019360-63643122/gosq/16/file/seg.ts' for reading\n",
      "[out#0/mp4 @ 0x12f107190] video:0KiB audio:128KiB subtitle:0KiB other streams:0KiB global headers:0KiB muxing overhead: 1.977300%\n",
      "size=     130KiB time=N/A bitrate=N/A speed=N/A    \n"
     ]
    },
    {
     "name": "stdout",
     "output_type": "stream",
     "text": [
      "[download] 100% of  130.29KiB in 00:00:02 at 55.63KiB/s\n",
      "Running command: yt-dlp --download-sections *00:01:21-00:01:26 --merge-output-format mp4 https://www.youtube.com/watch?v=4xpY92W60Gw -o /Users/treyshanks/data_science/Court_Vision/data/inputs/lebron_4.mp4\n",
      "[youtube] Extracting URL: https://www.youtube.com/watch?v=4xpY92W60Gw\n",
      "[youtube] 4xpY92W60Gw: Downloading webpage\n",
      "[youtube] 4xpY92W60Gw: Downloading ios player API JSON\n",
      "[youtube] 4xpY92W60Gw: Downloading m3u8 information\n",
      "[info] 4xpY92W60Gw: Downloading 1 format(s): 616+251\n",
      "[info] 4xpY92W60Gw: Downloading 1 time ranges: 81.0-86.0\n",
      "[download] Destination: /Users/treyshanks/data_science/Court_Vision/data/inputs/lebron_4.mp4\n"
     ]
    },
    {
     "name": "stderr",
     "output_type": "stream",
     "text": [
      "[hls @ 0x13af06330] Skip ('#EXT-X-VERSION:6')\n",
      "[hls @ 0x13af06330] Opening 'https://rr2---sn-5ualdns7.googlevideo.com/videoplayback/id/e31a58f765bad06c/itag/616/source/youtube/expire/1717311464/ei/iMNbZvO0CtfD0_wPgbivoAw/ip/2601:483:4b7e:d050:c4d2:ae6b:72af:bbf3/requiressl/yes/ratebypass/yes/pfa/1/wft/1/sgovp/clen%3D63643123%3Bdur%3D97.131%3Bgir%3Dyes%3Bitag%3D356%3Blmt%3D1702073830196013/rqh/1/hls_chunk_host/rr2---sn-5ualdns7.googlevideo.com/xpc/EgVo2aDSNQ%3D%3D/mh/M4/mm/31,26/mn/sn-5ualdns7,sn-p5qs7n6d/ms/au,onr/mv/m/mvi/2/pl/40/gcr/us/initcwndbps/1178750/vprv/1/playlist_type/DVR/txp/5532434/mt/1717289563/fvip/2/keepalive/yes/sparams/expire,ei,ip,id,itag,source,requiressl,ratebypass,pfa,wft,sgovp,rqh,xpc,gcr,vprv,playlist_type/sig/AJfQdSswRQIhAKxMXRkblEyRbOT6Eg-x0oCGjSX_YBiLmUpZcGJvB7GmAiBMktUTBiQUX0RfNxsd-wvEwaf5fNqvRejUMwVskkQXFA%3D%3D/lsparams/hls_chunk_host,mh,mm,mn,ms,mv,mvi,pl,initcwndbps/lsig/AHlkHjAwRQIgVvJc6ZdEcNji_VRNxA-BOL66mztcAkvqFUIFln4emLECIQCgJ-VTUik5xO1t2-xXhWEnuW4lwLRfNNrnLf-fGJdkrQ%3D%3D/playlist/index.m3u8/govp/slices%3D0-4487612/gosq/0?is=1&file=seg.ts' for reading\n",
      "    Last message repeated 1 times\n",
      "[hls @ 0x13af06330] Opening 'https://rr2---sn-5ualdns7.googlevideo.com/videoplayback/id/e31a58f765bad06c/itag/616/source/youtube/expire/1717311464/ei/iMNbZvO0CtfD0_wPgbivoAw/ip/2601:483:4b7e:d050:c4d2:ae6b:72af:bbf3/requiressl/yes/ratebypass/yes/pfa/1/wft/1/sgovp/clen%3D63643123%3Bdur%3D97.131%3Bgir%3Dyes%3Bitag%3D356%3Blmt%3D1702073830196013/rqh/1/hls_chunk_host/rr2---sn-5ualdns7.googlevideo.com/xpc/EgVo2aDSNQ%3D%3D/mh/M4/mm/31,26/mn/sn-5ualdns7,sn-p5qs7n6d/ms/au,onr/mv/m/mvi/2/pl/40/gcr/us/initcwndbps/1178750/vprv/1/playlist_type/DVR/txp/5532434/mt/1717289563/fvip/2/keepalive/yes/sparams/expire,ei,ip,id,itag,source,requiressl,ratebypass,pfa,wft,sgovp,rqh,xpc,gcr,vprv,playlist_type/sig/AJfQdSswRQIhAKxMXRkblEyRbOT6Eg-x0oCGjSX_YBiLmUpZcGJvB7GmAiBMktUTBiQUX0RfNxsd-wvEwaf5fNqvRejUMwVskkQXFA%3D%3D/lsparams/hls_chunk_host,mh,mm,mn,ms,mv,mvi,pl,initcwndbps/lsig/AHlkHjAwRQIgVvJc6ZdEcNji_VRNxA-BOL66mztcAkvqFUIFln4emLECIQCgJ-VTUik5xO1t2-xXhWEnuW4lwLRfNNrnLf-fGJdkrQ%3D%3D/playlist/index.m3u8/govp/slices%3D0-219,4487613-7706573/gosq/1/file/seg.ts' for reading\n",
      "Input #0, hls, from 'https://manifest.googlevideo.com/api/manifest/hls_playlist/expire/1717311464/ei/iMNbZvO0CtfD0_wPgbivoAw/ip/2601:483:4b7e:d050:c4d2:ae6b:72af:bbf3/id/e31a58f765bad06c/itag/616/source/youtube/requiressl/yes/ratebypass/yes/pfa/1/wft/1/sgovp/clen%3D63643123%3Bdur%3D97.131%3Bgir%3Dyes%3Bitag%3D356%3Blmt%3D1702073830196013/rqh/1/hls_chunk_host/rr2---sn-5ualdns7.googlevideo.com/xpc/EgVo2aDSNQ%3D%3D/mh/M4/mm/31,26/mn/sn-5ualdns7,sn-p5qs7n6d/ms/au,onr/mv/m/mvi/2/pl/40/gcr/us/initcwndbps/1178750/vprv/1/playlist_type/DVR/dover/13/txp/5532434/mt/1717289563/fvip/2/short_key/1/keepalive/yes/sparams/expire,ei,ip,id,itag,source,requiressl,ratebypass,pfa,wft,sgovp,rqh,xpc,gcr,vprv,playlist_type/sig/AJfQdSswRQIhAKxMXRkblEyRbOT6Eg-x0oCGjSX_YBiLmUpZcGJvB7GmAiBMktUTBiQUX0RfNxsd-wvEwaf5fNqvRejUMwVskkQXFA%3D%3D/lsparams/hls_chunk_host,mh,mm,mn,ms,mv,mvi,pl,initcwndbps/lsig/AHlkHjAwRQIgVvJc6ZdEcNji_VRNxA-BOL66mztcAkvqFUIFln4emLECIQCgJ-VTUik5xO1t2-xXhWEnuW4lwLRfNNrnLf-fGJdkrQ%3D%3D/playlist/index.m3u8':\n",
      "  Duration: 00:01:37.13, start: 0.000000, bitrate: 1 kb/s\n",
      "  Program 0 \n",
      "    Metadata:\n",
      "      variant_bitrate : 0\n",
      "  Stream #0:0(und): Video: vp9 (Profile 0) (vp09 / 0x39307076), yuv420p(tv, bt709), 1920x1080, 5324 kb/s, 29.97 fps, 29.97 tbr, 1k tbn (default)\n",
      "      Metadata:\n",
      "        variant_bitrate : 0\n",
      "        compatible_brands: iso6mp41\n",
      "        handler_name    : ISO Media file produced by Google Inc. Created on: 06/01/2024.\n",
      "        vendor_id       : [0][0][0][0]\n",
      "        major_brand     : dash\n",
      "        minor_version   : 0\n",
      "        creation_time   : 2024-06-02T00:57:45.000000Z\n",
      "Input #1, matroska,webm, from 'https://rr3---sn-5uaeznlz.googlevideo.com/videoplayback?expire=1717311463&ei=h8NbZq2nJuDzzLUPtc2oyAw&ip=2601%3A483%3A4b7e%3Ad050%3Ac4d2%3Aae6b%3A72af%3Abbf3&id=o-AI7pDuXtdJqzGdp4nD9psWZpowZWp2Ch83akR3xPxPEI&itag=251&source=youtube&requiressl=yes&xpc=EgVo2aDSNQ%3D%3D&mh=M4&mm=31%2C26&mn=sn-5uaeznlz%2Csn-p5qs7n6d&ms=au%2Conr&mv=m&mvi=3&pl=40&gcr=us&initcwndbps=1210000&bui=AbKP-1NFL9qqOCY1wXOspmJUvhv520MR2ybdxz5Q2HHc-SKPnHI3kZ9D0keK3-th8nnTbSc4oyvwD-jO&spc=UWF9f73V0lqwZET2nTF41QcBe9wyxPI-bwwy5cwxQqtlBNZqA6IGZ_2HAMOF&vprv=1&svpuc=1&mime=audio%2Fwebm&ns=IxUlxHEQhkmy3B2goqcz6J4Q&rqh=1&gir=yes&clen=1476513&dur=97.181&lmt=1702072496113337&mt=1717289563&fvip=2&keepalive=yes&c=WEB&sefc=1&txp=5532434&n=3ev7B85F7MuDQg&sparams=expire%2Cei%2Cip%2Cid%2Citag%2Csource%2Crequiressl%2Cxpc%2Cgcr%2Cbui%2Cspc%2Cvprv%2Csvpuc%2Cmime%2Cns%2Crqh%2Cgir%2Cclen%2Cdur%2Clmt&sig=AJfQdSswRQIhAOf6QP-mevRVjT5Nxzl4MuvbvBCBTDnzxOs7W9amv1gBAiBWja4Uu9wx1oWDU6_BIVqdOr73fjmDPiYJ1IeNIxHLvA%3D%3D&lsparams=mh%2Cmm%2Cmn%2Cms%2Cmv%2Cmvi%2Cpl%2Cinitcwndbps&lsig=AHlkHjAwRgIhAPTrIfP4fnWPYlYtVOep8IjldD9_mlubufnIDWQoepHTAiEA8GW2S2wfLxOLQnXcsdjVRha6sVw23_karfZ1BhotmJ8%3D':\n",
      "  Metadata:\n",
      "    encoder         : google/video-file\n",
      "  Duration: 00:01:37.18, start: -0.007000, bitrate: 121 kb/s\n",
      "  Stream #1:0(eng): Audio: opus, 48000 Hz, stereo, fltp (default)\n",
      "Stream mapping:\n",
      "  Stream #0:0 -> #0:0 (copy)\n",
      "  Stream #1:0 -> #0:1 (copy)\n",
      "[mp4 @ 0x11b844480] track 1: codec frame size is not set\n",
      "Output #0, mp4, to 'file:/Users/treyshanks/data_science/Court_Vision/data/inputs/lebron_4.mp4.part':\n",
      "  Metadata:\n",
      "    encoder         : Lavf61.1.100\n",
      "  Stream #0:0(und): Video: vp9 (Profile 0) (vp09 / 0x39307076), yuv420p(tv, bt709), 1920x1080, q=2-31, 5324 kb/s, 29.97 fps, 29.97 tbr, 16k tbn (default)\n",
      "      Metadata:\n",
      "        variant_bitrate : 0\n",
      "        compatible_brands: iso6mp41\n",
      "        handler_name    : ISO Media file produced by Google Inc. Created on: 06/01/2024.\n",
      "        vendor_id       : [0][0][0][0]\n",
      "        major_brand     : dash\n",
      "        minor_version   : 0\n",
      "        creation_time   : 2024-06-02T00:57:45.000000Z\n",
      "  Stream #0:1(eng): Audio: opus (Opus / 0x7375704F), 48000 Hz, stereo, fltp (default)\n",
      "Press [q] to stop, [?] for help\n",
      "[hls @ 0x13af06330] Opening 'https://rr2---sn-5ualdns7.googlevideo.com/videoplayback/id/e31a58f765bad06c/itag/616/source/youtube/expire/1717311464/ei/iMNbZvO0CtfD0_wPgbivoAw/ip/2601:483:4b7e:d050:c4d2:ae6b:72af:bbf3/requiressl/yes/ratebypass/yes/pfa/1/wft/1/sgovp/clen%3D63643123%3Bdur%3D97.131%3Bgir%3Dyes%3Bitag%3D356%3Blmt%3D1702073830196013/rqh/1/hls_chunk_host/rr2---sn-5ualdns7.googlevideo.com/xpc/EgVo2aDSNQ%3D%3D/mh/M4/mm/31,26/mn/sn-5ualdns7,sn-p5qs7n6d/ms/au,onr/mv/m/mvi/2/pl/40/gcr/us/initcwndbps/1178750/vprv/1/playlist_type/DVR/txp/5532434/mt/1717289563/fvip/2/keepalive/yes/sparams/expire,ei,ip,id,itag,source,requiressl,ratebypass,pfa,wft,sgovp,rqh,xpc,gcr,vprv,playlist_type/sig/AJfQdSswRQIhAKxMXRkblEyRbOT6Eg-x0oCGjSX_YBiLmUpZcGJvB7GmAiBMktUTBiQUX0RfNxsd-wvEwaf5fNqvRejUMwVskkQXFA%3D%3D/lsparams/hls_chunk_host,mh,mm,mn,ms,mv,mvi,pl,initcwndbps/lsig/AHlkHjAwRQIgVvJc6ZdEcNji_VRNxA-BOL66mztcAkvqFUIFln4emLECIQCgJ-VTUik5xO1t2-xXhWEnuW4lwLRfNNrnLf-fGJdkrQ%3D%3D/playlist/index.m3u8/govp/slices%3D0-4487612/gosq/0?is=1&file=seg.ts' for reading\n",
      "[hls @ 0x13af06330] Opening 'https://rr2---sn-5ualdns7.googlevideo.com/videoplayback/id/e31a58f765bad06c/itag/616/source/youtube/expire/1717311464/ei/iMNbZvO0CtfD0_wPgbivoAw/ip/2601:483:4b7e:d050:c4d2:ae6b:72af:bbf3/requiressl/yes/ratebypass/yes/pfa/1/wft/1/sgovp/clen%3D63643123%3Bdur%3D97.131%3Bgir%3Dyes%3Bitag%3D356%3Blmt%3D1702073830196013/rqh/1/hls_chunk_host/rr2---sn-5ualdns7.googlevideo.com/xpc/EgVo2aDSNQ%3D%3D/mh/M4/mm/31,26/mn/sn-5ualdns7,sn-p5qs7n6d/ms/au,onr/mv/m/mvi/2/pl/40/gcr/us/initcwndbps/1178750/vprv/1/playlist_type/DVR/txp/5532434/mt/1717289563/fvip/2/keepalive/yes/sparams/expire,ei,ip,id,itag,source,requiressl,ratebypass,pfa,wft,sgovp,rqh,xpc,gcr,vprv,playlist_type/sig/AJfQdSswRQIhAKxMXRkblEyRbOT6Eg-x0oCGjSX_YBiLmUpZcGJvB7GmAiBMktUTBiQUX0RfNxsd-wvEwaf5fNqvRejUMwVskkQXFA%3D%3D/lsparams/hls_chunk_host,mh,mm,mn,ms,mv,mvi,pl,initcwndbps/lsig/AHlkHjAwRQIgVvJc6ZdEcNji_VRNxA-BOL66mztcAkvqFUIFln4emLECIQCgJ-VTUik5xO1t2-xXhWEnuW4lwLRfNNrnLf-fGJdkrQ%3D%3D/playlist/index.m3u8/govp/slices%3D0-219,52884239-55413432/gosq/14/file/seg.ts' for reading\n",
      "[hls @ 0x13af06330] Opening 'https://rr2---sn-5ualdns7.googlevideo.com/videoplayback/id/e31a58f765bad06c/itag/616/source/youtube/expire/1717311464/ei/iMNbZvO0CtfD0_wPgbivoAw/ip/2601:483:4b7e:d050:c4d2:ae6b:72af:bbf3/requiressl/yes/ratebypass/yes/pfa/1/wft/1/sgovp/clen%3D63643123%3Bdur%3D97.131%3Bgir%3Dyes%3Bitag%3D356%3Blmt%3D1702073830196013/rqh/1/hls_chunk_host/rr2---sn-5ualdns7.googlevideo.com/xpc/EgVo2aDSNQ%3D%3D/mh/M4/mm/31,26/mn/sn-5ualdns7,sn-p5qs7n6d/ms/au,onr/mv/m/mvi/2/pl/40/gcr/us/initcwndbps/1178750/vprv/1/playlist_type/DVR/txp/5532434/mt/1717289563/fvip/2/keepalive/yes/sparams/expire,ei,ip,id,itag,source,requiressl,ratebypass,pfa,wft,sgovp,rqh,xpc,gcr,vprv,playlist_type/sig/AJfQdSswRQIhAKxMXRkblEyRbOT6Eg-x0oCGjSX_YBiLmUpZcGJvB7GmAiBMktUTBiQUX0RfNxsd-wvEwaf5fNqvRejUMwVskkQXFA%3D%3D/lsparams/hls_chunk_host,mh,mm,mn,ms,mv,mvi,pl,initcwndbps/lsig/AHlkHjAwRQIgVvJc6ZdEcNji_VRNxA-BOL66mztcAkvqFUIFln4emLECIQCgJ-VTUik5xO1t2-xXhWEnuW4lwLRfNNrnLf-fGJdkrQ%3D%3D/playlist/index.m3u8/govp/slices%3D0-219,55413433-60019359/gosq/15/file/seg.ts' for reading\n",
      "[https @ 0x13b85f400] Opening 'https://rr2---sn-5ualdns7.googlevideo.com/videoplayback/id/e31a58f765bad06c/itag/616/source/youtube/expire/1717311464/ei/iMNbZvO0CtfD0_wPgbivoAw/ip/2601:483:4b7e:d050:c4d2:ae6b:72af:bbf3/requiressl/yes/ratebypass/yes/pfa/1/wft/1/sgovp/clen%3D63643123%3Bdur%3D97.131%3Bgir%3Dyes%3Bitag%3D356%3Blmt%3D1702073830196013/rqh/1/hls_chunk_host/rr2---sn-5ualdns7.googlevideo.com/xpc/EgVo2aDSNQ%3D%3D/mh/M4/mm/31,26/mn/sn-5ualdns7,sn-p5qs7n6d/ms/au,onr/mv/m/mvi/2/pl/40/gcr/us/initcwndbps/1178750/vprv/1/playlist_type/DVR/txp/5532434/mt/1717289563/fvip/2/keepalive/yes/sparams/expire,ei,ip,id,itag,source,requiressl,ratebypass,pfa,wft,sgovp,rqh,xpc,gcr,vprv,playlist_type/sig/AJfQdSswRQIhAKxMXRkblEyRbOT6Eg-x0oCGjSX_YBiLmUpZcGJvB7GmAiBMktUTBiQUX0RfNxsd-wvEwaf5fNqvRejUMwVskkQXFA%3D%3D/lsparams/hls_chunk_host,mh,mm,mn,ms,mv,mvi,pl,initcwndbps/lsig/AHlkHjAwRQIgVvJc6ZdEcNji_VRNxA-BOL66mztcAkvqFUIFln4emLECIQCgJ-VTUik5xO1t2-xXhWEnuW4lwLRfNNrnLf-fGJdkrQ%3D%3D/playlist/index.m3u8/govp/slices%3D0-219,60019360-63643122/gosq/16/file/seg.ts' for reading\n",
      "[out#0/mp4 @ 0x11b8443c0] video:0KiB audio:88KiB subtitle:0KiB other streams:0KiB global headers:0KiB muxing overhead: 2.207680%\n",
      "size=      90KiB time=N/A bitrate=N/A speed=N/A    \n"
     ]
    },
    {
     "name": "stdout",
     "output_type": "stream",
     "text": [
      "[download] 100% of   89.83KiB in 00:00:01 at 56.70KiB/s\n",
      "Running command: yt-dlp --download-sections *00:01:28-00:01:33 --merge-output-format mp4 https://www.youtube.com/watch?v=4xpY92W60Gw -o /Users/treyshanks/data_science/Court_Vision/data/inputs/lebron_5.mp4\n",
      "[youtube] Extracting URL: https://www.youtube.com/watch?v=4xpY92W60Gw\n",
      "[youtube] 4xpY92W60Gw: Downloading webpage\n",
      "[youtube] 4xpY92W60Gw: Downloading ios player API JSON\n",
      "[youtube] 4xpY92W60Gw: Downloading m3u8 information\n",
      "[info] 4xpY92W60Gw: Downloading 1 format(s): 616+251\n",
      "[info] 4xpY92W60Gw: Downloading 1 time ranges: 88.0-93.0\n",
      "[download] Destination: /Users/treyshanks/data_science/Court_Vision/data/inputs/lebron_5.mp4\n"
     ]
    },
    {
     "name": "stderr",
     "output_type": "stream",
     "text": [
      "[hls @ 0x156e2d920] Skip ('#EXT-X-VERSION:6')\n",
      "[hls @ 0x156e2d920] Opening 'https://rr3---sn-5uaeznlz.googlevideo.com/videoplayback/id/e31a58f765bad06c/itag/616/source/youtube/expire/1717311467/ei/i8NbZsXgKdXX0_wP2vyp6AM/ip/2601:483:4b7e:d050:c4d2:ae6b:72af:bbf3/requiressl/yes/ratebypass/yes/pfa/1/wft/1/sgovp/clen%3D63643123%3Bdur%3D97.131%3Bgir%3Dyes%3Bitag%3D356%3Blmt%3D1702073830196013/rqh/1/hls_chunk_host/rr3---sn-5uaeznlz.googlevideo.com/xpc/EgVo2aDSNQ%3D%3D/mh/M4/mm/31,29/mn/sn-5uaeznlz,sn-5ualdns7/ms/au,rdu/mv/m/mvi/3/pl/40/gcr/us/initcwndbps/1166250/vprv/1/playlist_type/DVR/txp/5532434/mt/1717289563/fvip/2/keepalive/yes/sparams/expire,ei,ip,id,itag,source,requiressl,ratebypass,pfa,wft,sgovp,rqh,xpc,gcr,vprv,playlist_type/sig/AJfQdSswRAIgAQNteHWMEAbTOzlhFIlUiGntGsQ3KoLDpVItCM3gmvgCIHbeQGqI3f_a1yjl0lXt9PLCJI7CiBqpKec16iQYU00Z/lsparams/hls_chunk_host,mh,mm,mn,ms,mv,mvi,pl,initcwndbps/lsig/AHlkHjAwRQIgWPo6RkVwtLbhug3SxQhITjxbA-06dwh81iTasx6o5_UCIQC4gqnY8tculHTM_7bpMAAZXbNS9jCZrHol7ISLTBdU_Q%3D%3D/playlist/index.m3u8/govp/slices%3D0-4487612/gosq/0?is=1&file=seg.ts' for reading\n",
      "[hls @ 0x156e2d920] Opening 'https://rr3---sn-5uaeznlz.googlevideo.com/videoplayback/id/e31a58f765bad06c/itag/616/source/youtube/expire/1717311467/ei/i8NbZsXgKdXX0_wP2vyp6AM/ip/2601:483:4b7e:d050:c4d2:ae6b:72af:bbf3/requiressl/yes/ratebypass/yes/pfa/1/wft/1/sgovp/clen%3D63643123%3Bdur%3D97.131%3Bgir%3Dyes%3Bitag%3D356%3Blmt%3D1702073830196013/rqh/1/hls_chunk_host/rr3---sn-5uaeznlz.googlevideo.com/xpc/EgVo2aDSNQ%3D%3D/mh/M4/mm/31,29/mn/sn-5uaeznlz,sn-5ualdns7/ms/au,rdu/mv/m/mvi/3/pl/40/gcr/us/initcwndbps/1166250/vprv/1/playlist_type/DVR/txp/5532434/mt/1717289563/fvip/2/keepalive/yes/sparams/expire,ei,ip,id,itag,source,requiressl,ratebypass,pfa,wft,sgovp,rqh,xpc,gcr,vprv,playlist_type/sig/AJfQdSswRAIgAQNteHWMEAbTOzlhFIlUiGntGsQ3KoLDpVItCM3gmvgCIHbeQGqI3f_a1yjl0lXt9PLCJI7CiBqpKec16iQYU00Z/lsparams/hls_chunk_host,mh,mm,mn,ms,mv,mvi,pl,initcwndbps/lsig/AHlkHjAwRQIgWPo6RkVwtLbhug3SxQhITjxbA-06dwh81iTasx6o5_UCIQC4gqnY8tculHTM_7bpMAAZXbNS9jCZrHol7ISLTBdU_Q%3D%3D/playlist/index.m3u8/govp/slices%3D0-4487612/gosq/0/file/seg.ts' for reading\n",
      "[hls @ 0x156e2d920] Opening 'https://rr3---sn-5uaeznlz.googlevideo.com/videoplayback/id/e31a58f765bad06c/itag/616/source/youtube/expire/1717311467/ei/i8NbZsXgKdXX0_wP2vyp6AM/ip/2601:483:4b7e:d050:c4d2:ae6b:72af:bbf3/requiressl/yes/ratebypass/yes/pfa/1/wft/1/sgovp/clen%3D63643123%3Bdur%3D97.131%3Bgir%3Dyes%3Bitag%3D356%3Blmt%3D1702073830196013/rqh/1/hls_chunk_host/rr3---sn-5uaeznlz.googlevideo.com/xpc/EgVo2aDSNQ%3D%3D/mh/M4/mm/31,29/mn/sn-5uaeznlz,sn-5ualdns7/ms/au,rdu/mv/m/mvi/3/pl/40/gcr/us/initcwndbps/1166250/vprv/1/playlist_type/DVR/txp/5532434/mt/1717289563/fvip/2/keepalive/yes/sparams/expire,ei,ip,id,itag,source,requiressl,ratebypass,pfa,wft,sgovp,rqh,xpc,gcr,vprv,playlist_type/sig/AJfQdSswRAIgAQNteHWMEAbTOzlhFIlUiGntGsQ3KoLDpVItCM3gmvgCIHbeQGqI3f_a1yjl0lXt9PLCJI7CiBqpKec16iQYU00Z/lsparams/hls_chunk_host,mh,mm,mn,ms,mv,mvi,pl,initcwndbps/lsig/AHlkHjAwRQIgWPo6RkVwtLbhug3SxQhITjxbA-06dwh81iTasx6o5_UCIQC4gqnY8tculHTM_7bpMAAZXbNS9jCZrHol7ISLTBdU_Q%3D%3D/playlist/index.m3u8/govp/slices%3D0-219,4487613-7706573/gosq/1/file/seg.ts' for reading\n",
      "Input #0, hls, from 'https://manifest.googlevideo.com/api/manifest/hls_playlist/expire/1717311467/ei/i8NbZsXgKdXX0_wP2vyp6AM/ip/2601:483:4b7e:d050:c4d2:ae6b:72af:bbf3/id/e31a58f765bad06c/itag/616/source/youtube/requiressl/yes/ratebypass/yes/pfa/1/wft/1/sgovp/clen%3D63643123%3Bdur%3D97.131%3Bgir%3Dyes%3Bitag%3D356%3Blmt%3D1702073830196013/rqh/1/hls_chunk_host/rr3---sn-5uaeznlz.googlevideo.com/xpc/EgVo2aDSNQ%3D%3D/mh/M4/mm/31,29/mn/sn-5uaeznlz,sn-5ualdns7/ms/au,rdu/mv/m/mvi/3/pl/40/gcr/us/initcwndbps/1166250/vprv/1/playlist_type/DVR/dover/13/txp/5532434/mt/1717289563/fvip/2/short_key/1/keepalive/yes/sparams/expire,ei,ip,id,itag,source,requiressl,ratebypass,pfa,wft,sgovp,rqh,xpc,gcr,vprv,playlist_type/sig/AJfQdSswRAIgAQNteHWMEAbTOzlhFIlUiGntGsQ3KoLDpVItCM3gmvgCIHbeQGqI3f_a1yjl0lXt9PLCJI7CiBqpKec16iQYU00Z/lsparams/hls_chunk_host,mh,mm,mn,ms,mv,mvi,pl,initcwndbps/lsig/AHlkHjAwRQIgWPo6RkVwtLbhug3SxQhITjxbA-06dwh81iTasx6o5_UCIQC4gqnY8tculHTM_7bpMAAZXbNS9jCZrHol7ISLTBdU_Q%3D%3D/playlist/index.m3u8':\n",
      "  Duration: 00:01:37.13, start: 0.000000, bitrate: 1 kb/s\n",
      "  Program 0 \n",
      "    Metadata:\n",
      "      variant_bitrate : 0\n",
      "  Stream #0:0(und): Video: vp9 (Profile 0) (vp09 / 0x39307076), yuv420p(tv, bt709), 1920x1080, 5324 kb/s, 29.97 fps, 29.97 tbr, 1k tbn (default)\n",
      "      Metadata:\n",
      "        variant_bitrate : 0\n",
      "        compatible_brands: iso6mp41\n",
      "        handler_name    : ISO Media file produced by Google Inc. Created on: 06/01/2024.\n",
      "        vendor_id       : [0][0][0][0]\n",
      "        major_brand     : dash\n",
      "        minor_version   : 0\n",
      "        creation_time   : 2024-06-02T00:57:48.000000Z\n",
      "Input #1, matroska,webm, from 'https://rr2---sn-5ualdns7.googlevideo.com/videoplayback?expire=1717311467&ei=i8NbZuUg58TL-w-W3raRDg&ip=2601%3A483%3A4b7e%3Ad050%3Ac4d2%3Aae6b%3A72af%3Abbf3&id=o-AG6Ci8fFlxNy9cTsR9KA22mZFmTmdxEnMhl6iHv8aMUx&itag=251&source=youtube&requiressl=yes&xpc=EgVo2aDSNQ%3D%3D&mh=M4&mm=31%2C29&mn=sn-5ualdns7%2Csn-5uaeznlz&ms=au%2Crdu&mv=m&mvi=2&pl=40&gcr=us&initcwndbps=1166250&bui=AbKP-1Pk9B5lXCal7WmYDpTqpiSU_i64NdQo4Fv6G6OVn4Aa2MBlBcUVS97xA4k7wi-RL43loKIm6Lju&spc=UWF9f0MH2aL7cUlVR1sHHkjfn6WpPkqXWcwnT9ceaPchmQ9meJPQrmgrdRF1&vprv=1&svpuc=1&mime=audio%2Fwebm&ns=0IfG9dFSn99qB1O9ffF65koQ&rqh=1&gir=yes&clen=1476513&dur=97.181&lmt=1702072496113337&mt=1717289563&fvip=3&keepalive=yes&c=WEB&sefc=1&txp=5532434&n=KjY1Q5M0mL3tLQ&sparams=expire%2Cei%2Cip%2Cid%2Citag%2Csource%2Crequiressl%2Cxpc%2Cgcr%2Cbui%2Cspc%2Cvprv%2Csvpuc%2Cmime%2Cns%2Crqh%2Cgir%2Cclen%2Cdur%2Clmt&sig=AJfQdSswRQIgbB30aJ-lGNPGhbqer7xxKsT6gkhGh7lq8ouYzIHpKRkCIQDovpr1_u4QQzHLCe-0r3s__XDt4fucitYM5Pr_UuAPRw%3D%3D&lsparams=mh%2Cmm%2Cmn%2Cms%2Cmv%2Cmvi%2Cpl%2Cinitcwndbps&lsig=AHlkHjAwRQIgJN4gLLzHwSH8OPr9rzv5FF3NhD_RrW237D2fQfOJ5cgCIQDa8a8C1-Is_gCcZzydH8WyfhlJJ01WpPIVjyLJo73l8A%3D%3D':\n",
      "  Metadata:\n",
      "    encoder         : google/video-file\n",
      "  Duration: 00:01:37.18, start: -0.007000, bitrate: 121 kb/s\n",
      "  Stream #1:0(eng): Audio: opus, 48000 Hz, stereo, fltp (default)\n",
      "Stream mapping:\n",
      "  Stream #0:0 -> #0:0 (copy)\n",
      "  Stream #1:0 -> #0:1 (copy)\n",
      "[mp4 @ 0x13788aa00] track 1: codec frame size is not set\n",
      "Output #0, mp4, to 'file:/Users/treyshanks/data_science/Court_Vision/data/inputs/lebron_5.mp4.part':\n",
      "  Metadata:\n",
      "    encoder         : Lavf61.1.100\n",
      "  Stream #0:0(und): Video: vp9 (Profile 0) (vp09 / 0x39307076), yuv420p(tv, bt709), 1920x1080, q=2-31, 5324 kb/s, 29.97 fps, 29.97 tbr, 16k tbn (default)\n",
      "      Metadata:\n",
      "        variant_bitrate : 0\n",
      "        compatible_brands: iso6mp41\n",
      "        handler_name    : ISO Media file produced by Google Inc. Created on: 06/01/2024.\n",
      "        vendor_id       : [0][0][0][0]\n",
      "        major_brand     : dash\n",
      "        minor_version   : 0\n",
      "        creation_time   : 2024-06-02T00:57:48.000000Z\n",
      "  Stream #0:1(eng): Audio: opus (Opus / 0x7375704F), 48000 Hz, stereo, fltp (default)\n",
      "Press [q] to stop, [?] for help\n",
      "[hls @ 0x156e2d920] Opening 'https://rr3---sn-5uaeznlz.googlevideo.com/videoplayback/id/e31a58f765bad06c/itag/616/source/youtube/expire/1717311467/ei/i8NbZsXgKdXX0_wP2vyp6AM/ip/2601:483:4b7e:d050:c4d2:ae6b:72af:bbf3/requiressl/yes/ratebypass/yes/pfa/1/wft/1/sgovp/clen%3D63643123%3Bdur%3D97.131%3Bgir%3Dyes%3Bitag%3D356%3Blmt%3D1702073830196013/rqh/1/hls_chunk_host/rr3---sn-5uaeznlz.googlevideo.com/xpc/EgVo2aDSNQ%3D%3D/mh/M4/mm/31,29/mn/sn-5uaeznlz,sn-5ualdns7/ms/au,rdu/mv/m/mvi/3/pl/40/gcr/us/initcwndbps/1166250/vprv/1/playlist_type/DVR/txp/5532434/mt/1717289563/fvip/2/keepalive/yes/sparams/expire,ei,ip,id,itag,source,requiressl,ratebypass,pfa,wft,sgovp,rqh,xpc,gcr,vprv,playlist_type/sig/AJfQdSswRAIgAQNteHWMEAbTOzlhFIlUiGntGsQ3KoLDpVItCM3gmvgCIHbeQGqI3f_a1yjl0lXt9PLCJI7CiBqpKec16iQYU00Z/lsparams/hls_chunk_host,mh,mm,mn,ms,mv,mvi,pl,initcwndbps/lsig/AHlkHjAwRQIgWPo6RkVwtLbhug3SxQhITjxbA-06dwh81iTasx6o5_UCIQC4gqnY8tculHTM_7bpMAAZXbNS9jCZrHol7ISLTBdU_Q%3D%3D/playlist/index.m3u8/govp/slices%3D0-4487612/gosq/0?is=1&file=seg.ts' for reading\n",
      "[hls @ 0x156e2d920] Opening 'https://rr3---sn-5uaeznlz.googlevideo.com/videoplayback/id/e31a58f765bad06c/itag/616/source/youtube/expire/1717311467/ei/i8NbZsXgKdXX0_wP2vyp6AM/ip/2601:483:4b7e:d050:c4d2:ae6b:72af:bbf3/requiressl/yes/ratebypass/yes/pfa/1/wft/1/sgovp/clen%3D63643123%3Bdur%3D97.131%3Bgir%3Dyes%3Bitag%3D356%3Blmt%3D1702073830196013/rqh/1/hls_chunk_host/rr3---sn-5uaeznlz.googlevideo.com/xpc/EgVo2aDSNQ%3D%3D/mh/M4/mm/31,29/mn/sn-5uaeznlz,sn-5ualdns7/ms/au,rdu/mv/m/mvi/3/pl/40/gcr/us/initcwndbps/1166250/vprv/1/playlist_type/DVR/txp/5532434/mt/1717289563/fvip/2/keepalive/yes/sparams/expire,ei,ip,id,itag,source,requiressl,ratebypass,pfa,wft,sgovp,rqh,xpc,gcr,vprv,playlist_type/sig/AJfQdSswRAIgAQNteHWMEAbTOzlhFIlUiGntGsQ3KoLDpVItCM3gmvgCIHbeQGqI3f_a1yjl0lXt9PLCJI7CiBqpKec16iQYU00Z/lsparams/hls_chunk_host,mh,mm,mn,ms,mv,mvi,pl,initcwndbps/lsig/AHlkHjAwRQIgWPo6RkVwtLbhug3SxQhITjxbA-06dwh81iTasx6o5_UCIQC4gqnY8tculHTM_7bpMAAZXbNS9jCZrHol7ISLTBdU_Q%3D%3D/playlist/index.m3u8/govp/slices%3D0-219,55413433-60019359/gosq/15/file/seg.ts' for reading\n",
      "[hls @ 0x156e2d920] Opening 'https://rr3---sn-5uaeznlz.googlevideo.com/videoplayback/id/e31a58f765bad06c/itag/616/source/youtube/expire/1717311467/ei/i8NbZsXgKdXX0_wP2vyp6AM/ip/2601:483:4b7e:d050:c4d2:ae6b:72af:bbf3/requiressl/yes/ratebypass/yes/pfa/1/wft/1/sgovp/clen%3D63643123%3Bdur%3D97.131%3Bgir%3Dyes%3Bitag%3D356%3Blmt%3D1702073830196013/rqh/1/hls_chunk_host/rr3---sn-5uaeznlz.googlevideo.com/xpc/EgVo2aDSNQ%3D%3D/mh/M4/mm/31,29/mn/sn-5uaeznlz,sn-5ualdns7/ms/au,rdu/mv/m/mvi/3/pl/40/gcr/us/initcwndbps/1166250/vprv/1/playlist_type/DVR/txp/5532434/mt/1717289563/fvip/2/keepalive/yes/sparams/expire,ei,ip,id,itag,source,requiressl,ratebypass,pfa,wft,sgovp,rqh,xpc,gcr,vprv,playlist_type/sig/AJfQdSswRAIgAQNteHWMEAbTOzlhFIlUiGntGsQ3KoLDpVItCM3gmvgCIHbeQGqI3f_a1yjl0lXt9PLCJI7CiBqpKec16iQYU00Z/lsparams/hls_chunk_host,mh,mm,mn,ms,mv,mvi,pl,initcwndbps/lsig/AHlkHjAwRQIgWPo6RkVwtLbhug3SxQhITjxbA-06dwh81iTasx6o5_UCIQC4gqnY8tculHTM_7bpMAAZXbNS9jCZrHol7ISLTBdU_Q%3D%3D/playlist/index.m3u8/govp/slices%3D0-219,60019360-63643122/gosq/16/file/seg.ts' for reading\n",
      "size=       0KiB time=N/A bitrate=N/A speed=N/A    \r"
     ]
    },
    {
     "name": "stdout",
     "output_type": "stream",
     "text": [
      "[download] 100% of  192.85KiB in 00:00:01 at 106.70KiB/s\n"
     ]
    },
    {
     "name": "stderr",
     "output_type": "stream",
     "text": [
      "[out#0/mp4 @ 0x13792fea0] video:0KiB audio:190KiB subtitle:0KiB other streams:0KiB global headers:0KiB muxing overhead: 1.745076%\n",
      "size=     193KiB time=N/A bitrate=N/A speed=N/A    \n"
     ]
    }
   ],
   "source": [
    "youtube_url = 'https://www.youtube.com/watch?v=4xpY92W60Gw'\n",
    "\n",
    "download_clips(youtube_url, \"lebron\")"
   ]
  }
 ],
 "metadata": {
  "kernelspec": {
   "display_name": "yolo",
   "language": "python",
   "name": "python3"
  },
  "language_info": {
   "codemirror_mode": {
    "name": "ipython",
    "version": 3
   },
   "file_extension": ".py",
   "mimetype": "text/x-python",
   "name": "python",
   "nbconvert_exporter": "python",
   "pygments_lexer": "ipython3",
   "version": "3.12.3"
  }
 },
 "nbformat": 4,
 "nbformat_minor": 2
}
